<svg id="svg" version="1.1" xmlns="http://www.w3.org/2000/svg" xmlns:xlink="http://www.w3.org/1999/xlink" width="400"
     height="272" viewBox="0, 0, 400,272">
    <g id="svgg">
        <path id="path0"
              d="M136.735 6.438 C 135.088 6.963,133.068 7.569,132.245 7.783 C 131.422 7.998,130.296 8.297,129.743 8.447 C 126.902 9.220,118.905 16.744,117.690 19.788 C 116.524 22.708,115.631 25.070,115.194 26.395 C 114.971 27.068,114.503 28.415,114.153 29.388 C 112.106 35.075,112.109 35.057,112.109 41.165 C 112.109 44.986,112.283 48.369,112.648 51.636 C 112.944 54.291,113.315 58.667,113.471 61.361 C 113.628 64.054,113.938 67.361,114.161 68.707 C 114.908 73.216,115.324 75.230,115.754 76.415 C 117.357 80.834,116.934 83.274,114.651 82.767 C 113.926 82.606,112.660 82.400,111.837 82.309 C 111.014 82.219,109.116 81.908,107.619 81.619 C 98.450 79.848,74.018 77.276,66.383 77.278 C 59.550 77.280,44.656 79.160,39.592 80.660 C 32.904 82.641,27.552 85.035,25.220 87.088 C 23.997 88.164,20.136 93.640,20.136 94.298 C 20.136 94.513,19.799 95.639,19.388 96.800 C 18.465 99.403,18.370 103.952,19.175 106.939 C 19.437 107.912,19.817 109.442,20.020 110.340 C 20.963 114.522,24.768 123.078,27.116 126.300 C 34.923 137.013,41.261 143.388,55.730 155.080 C 59.810 158.377,60.080 159.043,57.636 159.775 C 55.636 160.374,55.511 160.763,55.506 166.363 C 55.501 172.627,56.094 171.746,47.975 177.551 C 44.207 180.245,40.294 183.122,39.279 183.946 C 26.255 194.507,17.930 202.060,15.282 205.714 C 14.144 207.286,12.649 209.306,11.960 210.204 C 10.050 212.693,7.883 215.919,6.243 218.713 C 5.428 220.101,4.366 221.876,3.883 222.659 C 0.757 227.718,0.237 229.729,0.083 237.358 C -0.041 243.505,-0.061 243.378,1.725 247.374 C 2.970 250.160,7.707 254.747,16.289 261.476 C 22.490 266.338,43.245 270.164,56.463 268.880 C 64.710 268.079,73.040 266.928,78.231 265.872 C 81.224 265.263,85.571 264.391,87.891 263.935 C 90.211 263.478,92.813 262.865,93.675 262.573 C 94.536 262.280,95.389 262.041,95.572 262.041 C 95.754 262.041,97.131 261.668,98.632 261.212 C 100.133 260.756,102.401 260.088,103.673 259.728 C 109.345 258.120,111.395 257.487,119.592 254.818 C 124.381 253.259,129.340 251.661,130.612 251.267 C 133.441 250.393,136.540 249.076,144.354 245.426 C 144.952 245.147,147.401 244.026,149.796 242.935 L 154.150 240.952 194.422 240.952 C 230.998 240.952,234.806 240.993,235.918 241.397 C 236.592 241.641,238.306 242.177,239.728 242.587 C 241.150 242.997,243.231 243.614,244.354 243.958 C 245.476 244.302,247.619 244.956,249.116 245.410 C 250.612 245.865,252.449 246.435,253.197 246.676 C 255.555 247.438,259.017 248.378,264.218 249.667 C 266.986 250.354,272.252 251.659,275.918 252.569 C 279.585 253.478,283.687 254.436,285.034 254.696 C 289.230 255.508,292.008 256.087,294.830 256.737 C 296.327 257.082,298.102 257.448,298.776 257.549 C 299.449 257.651,300.925 257.965,302.055 258.247 C 304.209 258.784,313.603 260.244,316.871 260.550 C 317.918 260.648,320.673 261.042,322.993 261.427 C 331.694 262.868,358.438 262.551,364.962 260.929 C 369.164 259.884,373.195 258.708,374.014 258.289 C 374.463 258.059,375.503 257.658,376.327 257.397 C 377.150 257.136,378.864 256.473,380.136 255.924 C 381.408 255.374,382.886 254.764,383.421 254.567 C 387.835 252.938,392.169 249.307,395.324 244.594 C 399.866 237.808,400.093 237.083,399.924 229.932 C 399.811 225.118,399.530 223.228,398.333 219.201 C 398.018 218.144,397.549 216.973,397.289 216.599 C 397.030 216.224,396.115 214.601,395.257 212.991 C 393.662 209.998,392.130 207.881,387.245 201.919 C 384.269 198.288,381.978 196.159,370.761 186.602 C 361.738 178.914,361.322 178.590,357.180 176.015 C 355.214 174.793,352.993 173.407,352.245 172.934 C 351.497 172.462,350.211 171.665,349.388 171.162 C 344.357 168.092,344.490 168.276,344.490 164.373 C 344.490 160.181,345.584 160.801,331.020 156.740 C 329.374 156.281,327.048 155.611,325.850 155.251 C 324.653 154.890,323.337 154.524,322.925 154.436 C 321.071 154.039,321.776 153.250,328.503 148.196 C 348.283 133.334,359.193 122.997,366.161 112.517 C 369.122 108.063,369.673 106.951,369.934 104.898 C 370.030 104.150,370.614 102.435,371.232 101.088 C 373.145 96.923,372.979 90.044,370.855 85.442 C 369.361 82.208,366.537 77.619,365.469 76.693 C 362.404 74.032,360.141 72.432,356.802 70.562 C 355.375 69.763,352.219 68.694,346.532 67.083 L 342.181 65.850 329.374 65.850 C 318.390 65.850,315.950 65.925,312.229 66.377 C 309.843 66.666,306.483 67.038,304.762 67.203 C 298.903 67.766,294.338 68.640,287.755 70.458 C 286.707 70.747,285.299 71.099,284.626 71.240 C 282.907 71.600,278.925 72.592,276.190 73.342 C 274.918 73.691,272.286 74.362,270.340 74.832 C 268.395 75.302,265.696 75.984,264.343 76.347 C 262.990 76.710,261.704 77.006,261.486 77.005 C 261.090 77.003,258.002 77.829,253.605 79.113 C 252.333 79.484,250.068 80.132,248.571 80.552 C 247.075 80.972,245.299 81.499,244.626 81.722 C 236.070 84.560,236.339 84.574,233.822 81.147 C 228.789 74.292,227.572 72.651,224.506 68.578 C 213.077 53.395,212.370 52.489,208.580 48.163 C 207.073 46.442,204.540 43.503,202.951 41.633 C 201.363 39.762,198.554 36.884,196.709 35.238 C 194.863 33.592,191.875 30.878,190.068 29.206 C 188.260 27.535,185.172 25.025,183.204 23.628 C 167.237 12.292,166.730 11.971,161.335 9.762 C 158.822 8.733,156.586 7.891,156.365 7.891 C 156.144 7.891,155.378 7.640,154.661 7.333 C 153.945 7.026,152.068 6.602,150.489 6.391 C 148.911 6.181,146.997 5.888,146.238 5.741 C 143.249 5.164,139.974 5.404,136.735 6.438 M152.116 15.784 C 154.225 16.234,156.284 16.774,156.691 16.984 C 157.097 17.194,158.100 17.558,158.919 17.792 C 165.442 19.657,164.806 19.316,178.231 28.159 L 184.354 32.192 197.091 44.872 C 211.882 59.595,213.214 61.163,228.639 82.020 C 231.896 86.424,231.812 86.707,226.784 88.254 C 226.046 88.480,223.667 89.297,221.497 90.068 C 219.327 90.838,216.694 91.762,215.646 92.120 C 214.599 92.478,212.701 93.152,211.429 93.617 C 210.156 94.082,208.381 94.684,207.483 94.955 C 206.585 95.225,205.465 95.670,204.994 95.943 C 203.472 96.827,203.265 96.345,203.265 91.922 C 203.265 87.955,203.157 87.477,201.965 86.199 C 201.316 85.503,201.272 85.272,201.231 82.341 C 201.182 78.840,200.985 78.367,199.574 78.367 C 198.148 78.367,197.823 79.089,197.823 82.255 C 197.823 85.116,197.646 85.694,196.417 86.844 L 195.646 87.565 195.646 91.674 C 195.646 96.328,195.506 96.686,193.553 97.014 C 191.942 97.285,189.943 97.962,188.239 98.813 C 186.354 99.756,186.357 99.756,183.734 98.930 C 181.580 98.251,180.096 97.828,176.054 96.739 C 174.782 96.396,173.389 95.977,172.957 95.806 C 172.526 95.636,171.608 95.375,170.917 95.228 C 170.225 95.080,168.680 94.660,167.483 94.295 C 164.918 93.512,162.663 92.882,160.408 92.317 C 159.510 92.092,157.807 91.612,156.624 91.251 C 154.826 90.702,146.716 88.965,137.687 87.195 C 136.565 86.975,134.238 86.495,132.517 86.128 C 130.796 85.761,128.500 85.314,127.415 85.136 C 125.127 84.759,123.913 84.115,123.508 83.061 C 122.064 79.304,120.256 69.691,119.733 62.993 C 119.581 61.048,119.254 57.467,119.006 55.037 C 118.590 50.952,118.589 50.364,118.994 47.281 C 119.236 45.447,119.505 42.966,119.594 41.769 C 120.723 26.448,127.385 17.679,138.912 16.342 C 140.259 16.185,142.401 15.822,143.673 15.535 C 146.843 14.818,147.707 14.844,152.116 15.784 M332.381 73.469 C 332.980 73.612,334.878 73.925,336.599 74.166 C 340.692 74.739,344.774 75.713,346.805 76.602 C 354.972 80.174,357.512 82.393,358.946 87.207 C 359.258 88.257,359.830 90.129,360.215 91.367 L 360.917 93.618 360.310 97.991 C 358.644 109.991,355.563 116.314,346.814 125.688 C 344.181 128.510,327.747 144.721,326.744 145.487 C 324.654 147.082,316.735 152.653,316.557 152.653 C 316.414 152.653,310.203 149.623,298.211 143.704 C 289.888 139.596,289.550 139.435,288.091 138.900 C 287.111 138.541,280.789 135.890,276.463 134.024 C 275.340 133.540,273.626 132.804,272.653 132.388 C 271.680 131.972,270.272 131.363,269.524 131.034 C 268.776 130.705,267.184 130.022,265.986 129.517 C 263.016 128.261,262.610 127.788,259.334 121.769 C 259.008 121.170,258.461 120.190,258.119 119.592 C 257.776 118.993,256.481 116.667,255.241 114.422 C 252.947 110.269,252.544 109.586,250.839 106.939 C 250.308 106.116,249.152 104.303,248.270 102.911 C 247.388 101.519,245.414 98.458,243.884 96.108 C 242.353 93.759,241.098 91.641,241.095 91.403 C 241.082 90.511,243.184 89.517,247.347 88.446 C 248.020 88.273,249.184 87.910,249.932 87.640 C 254.197 86.101,260.447 84.261,263.265 83.715 C 264.463 83.484,267.156 82.933,269.252 82.493 C 271.347 82.052,275.265 81.238,277.959 80.684 C 280.653 80.129,285.000 79.192,287.619 78.601 C 290.238 78.010,293.397 77.344,294.638 77.120 C 295.879 76.895,297.165 76.610,297.495 76.486 C 297.825 76.361,299.626 76.109,301.497 75.926 C 303.367 75.744,307.102 75.305,309.796 74.951 C 312.490 74.598,317.020 74.171,319.864 74.003 C 322.707 73.835,326.014 73.602,327.211 73.485 C 330.340 73.181,331.158 73.178,332.381 73.469 M89.751 87.897 C 91.447 88.047,95.304 88.287,98.322 88.431 C 101.340 88.575,105.463 88.927,107.483 89.215 C 109.503 89.502,112.748 89.887,114.694 90.070 C 116.639 90.253,118.488 90.563,118.802 90.758 C 119.390 91.126,120.816 93.837,120.816 94.590 C 120.816 94.824,121.171 96.075,121.605 97.371 C 122.039 98.667,122.905 101.381,123.530 103.401 C 125.302 109.126,126.283 112.127,126.869 113.605 C 127.165 114.354,127.630 115.701,127.903 116.599 C 128.175 117.497,129.009 120.007,129.756 122.177 C 131.642 127.657,131.681 127.946,130.645 128.684 C 130.188 129.010,126.350 130.990,122.118 133.085 C 111.717 138.232,109.347 139.461,107.211 140.814 C 106.000 141.580,97.243 146.711,91.207 150.190 C 89.020 151.450,86.254 152.477,83.862 152.915 C 83.010 153.071,81.517 153.430,80.544 153.712 C 78.854 154.203,75.593 155.031,72.381 155.786 C 71.558 155.979,69.428 156.519,67.647 156.986 C 63.603 158.046,64.384 158.394,57.715 152.561 C 54.607 149.843,50.862 146.578,49.393 145.306 C 46.339 142.663,45.817 142.122,41.648 137.286 C 34.775 129.315,30.590 122.556,28.670 116.327 C 27.384 112.152,27.570 103.677,29.010 100.894 C 30.417 98.172,37.111 93.349,41.910 91.598 C 43.329 91.080,44.921 90.473,45.449 90.248 C 46.575 89.769,54.787 88.814,61.207 88.415 C 63.686 88.261,66.510 88.036,67.483 87.915 C 70.070 87.591,86.155 87.578,89.751 87.897 M130.863 91.702 C 133.344 92.151,136.537 92.760,137.959 93.055 C 139.381 93.349,141.509 93.727,142.687 93.894 C 143.866 94.061,145.475 94.365,146.262 94.570 C 147.049 94.775,148.739 95.073,150.018 95.232 C 151.296 95.391,152.818 95.689,153.400 95.894 C 153.982 96.099,155.185 96.412,156.073 96.588 C 156.961 96.764,158.789 97.194,160.136 97.543 C 164.186 98.593,167.375 99.359,169.382 99.764 C 170.427 99.975,171.896 100.325,172.648 100.541 C 173.399 100.757,175.422 101.253,177.143 101.644 C 181.900 102.723,182.092 103.090,179.302 105.771 C 176.971 108.011,176.249 108.404,169.660 111.017 C 168.612 111.433,165.796 112.598,163.401 113.607 C 161.007 114.616,158.497 115.662,157.823 115.932 C 157.150 116.202,155.864 116.790,154.966 117.238 C 154.068 117.686,151.986 118.688,150.340 119.463 C 148.694 120.238,146.245 121.399,144.898 122.042 C 136.433 126.086,136.666 126.002,135.988 125.238 C 135.583 124.781,133.127 118.205,132.401 115.634 C 132.208 114.953,131.913 114.138,131.744 113.823 C 131.271 112.940,129.801 108.627,129.351 106.803 C 129.129 105.905,128.720 104.497,128.442 103.673 C 128.164 102.850,127.748 101.442,127.519 100.544 C 126.405 96.182,125.762 93.932,125.480 93.404 C 125.049 92.599,125.093 91.816,125.598 91.312 C 126.127 90.782,125.556 90.740,130.863 91.702 M235.085 92.236 C 235.633 92.529,240.001 99.019,246.411 109.063 C 248.907 112.972,251.144 116.462,252.114 117.959 C 256.092 124.095,256.185 125.147,252.608 123.578 C 250.733 122.755,248.198 121.759,245.442 120.763 C 244.619 120.465,243.800 120.102,243.621 119.955 C 243.443 119.808,242.586 119.458,241.717 119.177 C 240.847 118.897,238.912 118.222,237.415 117.678 C 235.918 117.134,233.102 116.139,231.156 115.466 C 227.060 114.049,227.088 114.070,225.119 111.023 C 222.794 107.426,217.325 102.391,214.499 101.248 C 212.398 100.398,212.862 99.216,215.649 98.324 C 216.695 97.989,218.776 97.273,220.272 96.733 C 221.769 96.194,223.728 95.522,224.626 95.240 C 227.047 94.482,233.263 92.270,233.422 92.111 C 233.648 91.885,234.558 91.953,235.085 92.236 M207.483 107.724 C 211.619 110.316,217.443 123.333,218.136 131.537 C 218.370 134.301,217.951 134.743,215.315 134.516 C 212.392 134.263,212.120 133.645,211.294 125.368 C 211.058 123.008,210.762 120.559,210.634 119.926 C 210.263 118.081,209.589 115.733,209.249 115.096 C 209.075 114.773,208.688 113.754,208.388 112.832 C 208.088 111.911,207.486 110.529,207.050 109.763 C 205.803 107.568,205.971 106.777,207.483 107.724 M192.109 108.883 C 192.109 109.054,191.691 110.615,191.180 112.352 C 189.872 116.797,188.920 120.429,188.604 122.177 C 188.455 123.000,188.142 124.209,187.908 124.864 C 187.604 125.716,187.483 127.081,187.483 129.664 C 187.483 134.107,187.378 134.293,184.753 134.513 C 182.805 134.677,182.558 134.597,182.053 133.638 C 181.554 132.691,182.175 127.222,183.044 124.898 C 183.408 123.925,183.834 122.701,183.990 122.177 C 184.145 121.653,184.563 120.585,184.919 119.803 C 185.274 119.021,185.642 118.071,185.737 117.692 C 185.833 117.312,186.018 116.935,186.150 116.854 C 186.281 116.773,187.052 115.322,187.862 113.631 C 189.715 109.760,192.109 107.084,192.109 108.883 M197.758 120.768 C 197.841 134.458,198.120 133.282,194.646 133.847 C 191.283 134.393,190.870 134.051,191.318 131.098 C 191.438 130.307,191.669 128.190,191.832 126.395 C 192.608 117.824,195.633 108.341,197.402 108.930 C 197.593 108.994,197.710 112.886,197.758 120.768 M203.390 110.731 C 203.734 111.414,204.655 114.177,205.435 116.871 C 206.216 119.565,207.149 122.689,207.509 123.814 C 208.966 128.371,208.305 134.844,206.437 134.301 C 206.115 134.207,205.116 134.008,204.218 133.858 C 201.783 133.451,201.668 133.387,201.368 132.274 C 200.907 130.562,201.096 109.691,201.576 109.211 C 202.089 108.698,202.566 109.097,203.390 110.731 M216.793 112.449 C 217.411 113.085,218.464 114.707,219.132 116.054 C 220.888 119.591,222.585 123.224,222.585 123.446 C 222.585 123.551,222.819 124.136,223.105 124.744 C 225.855 130.592,226.749 134.738,225.374 135.268 C 222.692 136.302,221.516 135.098,221.190 130.988 C 220.841 126.576,219.409 121.869,216.410 115.273 C 215.466 113.196,214.694 111.451,214.694 111.395 C 214.694 110.915,215.881 111.511,216.793 112.449 M182.386 114.626 C 182.511 114.988,182.026 116.563,181.334 118.041 C 179.824 121.265,178.289 127.135,177.456 132.871 C 177.308 133.888,177.040 134.899,176.860 135.116 C 176.181 135.933,173.790 135.428,173.524 134.410 C 173.294 133.532,174.581 127.189,175.194 126.176 C 175.483 125.698,175.810 125.000,175.920 124.626 C 176.903 121.277,181.973 113.436,182.386 114.626 M170.835 115.717 C 170.887 116.174,170.608 117.026,170.122 117.894 C 168.628 120.559,166.516 127.238,165.970 131.019 C 165.260 135.946,164.606 136.684,160.680 136.987 C 157.817 137.209,157.163 137.549,156.463 139.184 C 155.853 140.605,155.449 140.757,150.612 141.371 C 148.816 141.599,146.612 141.909,145.714 142.060 C 142.765 142.555,142.830 142.570,141.980 141.204 C 141.554 140.520,140.915 139.173,140.560 138.211 C 139.243 134.642,138.490 132.736,138.094 131.970 C 137.308 130.450,138.204 128.163,139.585 128.163 C 139.708 128.163,141.383 127.419,143.306 126.509 C 145.229 125.599,147.476 124.540,148.299 124.156 C 149.122 123.771,151.204 122.791,152.925 121.977 C 159.362 118.932,159.500 118.872,164.082 117.147 C 165.503 116.612,167.340 115.881,168.163 115.522 C 170.080 114.686,170.722 114.733,170.835 115.717 M232.585 118.759 C 234.864 119.928,240.029 122.177,240.436 122.177 C 240.551 122.177,241.143 122.418,241.752 122.713 C 242.361 123.008,243.532 123.482,244.355 123.767 C 247.366 124.809,258.377 129.295,258.694 129.609 C 259.287 130.194,265.034 141.686,265.034 142.285 C 265.034 142.655,264.790 142.963,264.373 143.122 C 263.646 143.398,263.794 143.412,257.415 142.467 C 254.946 142.101,252.129 141.730,251.156 141.642 C 244.489 141.038,243.178 140.617,242.386 138.829 C 241.754 137.404,241.438 137.269,237.823 136.874 C 234.101 136.468,234.087 136.453,233.734 132.644 C 233.329 128.269,232.622 125.806,230.082 119.908 C 229.289 118.065,230.315 117.594,232.585 118.759 M133.242 132.585 C 133.543 132.922,133.952 133.626,134.151 134.150 C 134.350 134.673,134.599 135.224,134.705 135.374 C 135.031 135.836,137.415 141.448,137.415 141.753 C 137.415 142.464,136.305 143.129,135.120 143.129 C 134.457 143.129,132.283 143.424,130.290 143.783 C 128.297 144.143,125.626 144.577,124.354 144.747 C 120.326 145.286,112.026 146.891,107.338 148.037 C 104.753 148.669,103.401 148.727,103.401 148.205 C 103.401 147.512,103.753 147.285,109.660 144.155 C 111.082 143.402,112.429 142.630,112.653 142.440 C 112.878 142.250,113.490 141.906,114.014 141.675 C 114.537 141.443,115.272 141.069,115.646 140.842 C 116.020 140.616,118.653 139.198,121.497 137.691 C 124.340 136.184,126.973 134.764,127.347 134.536 C 127.721 134.307,128.417 133.945,128.894 133.730 C 129.371 133.516,130.215 133.033,130.769 132.657 C 132.012 131.813,132.538 131.798,133.242 132.585 M270.338 134.538 C 271.387 135.051,275.000 136.751,278.367 138.315 C 281.735 139.879,285.433 141.602,286.586 142.144 C 287.739 142.686,288.749 143.129,288.830 143.129 C 289.015 143.129,292.112 144.529,294.286 145.594 C 295.184 146.035,296.025 146.395,296.155 146.395 C 296.539 146.394,298.737 147.862,298.884 148.217 C 299.107 148.753,295.028 148.207,290.204 147.054 C 289.306 146.839,287.163 146.423,285.442 146.128 C 283.721 145.834,281.456 145.416,280.408 145.200 C 279.361 144.983,277.308 144.590,275.848 144.326 C 272.526 143.724,272.056 143.342,270.183 139.728 C 269.407 138.231,268.619 136.823,268.433 136.599 C 266.227 133.949,267.132 132.970,270.338 134.538 M193.244 142.219 C 193.901 142.813,193.982 147.476,193.347 148.111 C 192.638 148.820,189.951 148.984,189.324 148.357 C 188.642 147.674,188.455 142.975,189.081 142.220 C 189.603 141.589,192.547 141.589,193.244 142.219 M201.407 142.219 C 202.081 142.829,202.144 147.477,201.488 148.133 C 200.450 149.171,197.492 148.857,197.175 147.675 C 196.819 146.347,196.995 142.636,197.434 142.196 C 198.034 141.597,200.737 141.612,201.407 142.219 M209.665 142.220 C 210.233 142.789,210.163 147.771,209.578 148.354 C 209.049 148.881,206.358 148.788,205.794 148.223 C 205.017 147.447,204.935 143.092,205.683 142.345 C 206.426 141.601,208.966 141.522,209.665 142.220 M216.988 142.298 C 219.478 143.940,218.909 148.844,216.228 148.844 C 214.156 148.844,213.512 142.672,215.510 141.958 C 216.132 141.735,216.136 141.736,216.988 142.298 M185.252 142.367 C 185.725 142.840,185.689 147.500,185.207 148.159 C 184.705 148.846,181.876 149.069,181.095 148.484 C 180.438 147.991,180.140 144.410,180.674 143.414 C 181.283 142.275,184.438 141.554,185.252 142.367 M177.150 143.827 C 177.675 145.210,177.301 148.138,176.537 148.609 C 175.973 148.958,172.964 148.554,172.585 148.079 C 172.133 147.511,172.149 144.725,172.607 144.098 C 173.387 143.031,176.770 142.829,177.150 143.827 M225.557 143.435 C 227.880 144.244,227.358 148.429,224.895 148.745 C 223.200 148.963,222.764 148.470,222.635 146.188 C 222.469 143.248,223.158 142.599,225.557 143.435 M168.698 144.744 C 169.276 145.825,169.045 148.531,168.312 149.264 C 166.389 151.187,163.967 148.321,165.075 145.434 C 165.489 144.355,168.212 143.837,168.698 144.744 M233.546 144.467 C 235.757 145.308,235.752 149.411,233.539 149.826 C 231.883 150.137,231.173 149.325,231.077 147.009 C 230.971 144.441,231.647 143.745,233.546 144.467 M155.956 145.283 C 156.511 145.733,156.591 146.017,156.544 147.368 C 156.472 149.461,156.151 149.728,153.256 150.102 C 151.952 150.270,149.089 150.680,146.894 151.012 C 141.628 151.810,141.395 151.724,141.281 148.930 C 141.154 145.826,140.912 145.931,149.932 145.179 C 152.252 144.986,154.412 144.813,154.732 144.795 C 155.052 144.777,155.603 144.996,155.956 145.283 M251.156 145.333 C 253.327 145.500,255.408 145.677,255.782 145.725 C 256.156 145.773,256.738 145.821,257.075 145.832 C 258.269 145.868,258.776 146.755,258.776 148.810 C 258.776 151.664,258.100 151.869,251.884 150.901 C 250.362 150.664,247.913 150.357,246.443 150.219 C 242.663 149.866,241.524 148.621,242.478 145.885 C 242.902 144.669,242.698 144.682,251.156 145.333 M136.599 146.667 C 137.532 147.600,137.252 150.758,136.173 151.465 C 134.913 152.291,123.844 153.791,123.166 153.228 C 122.563 152.727,122.388 150.877,122.841 149.793 C 123.323 148.640,123.610 148.523,127.755 147.793 C 129.551 147.477,131.816 146.982,132.789 146.691 C 135.087 146.006,135.933 146.001,136.599 146.667 M268.844 147.280 C 271.313 147.811,273.793 148.325,274.356 148.421 C 277.325 148.931,277.033 153.699,274.053 153.373 C 268.623 152.778,267.443 152.615,263.810 151.959 C 262.160 151.661,261.245 147.997,262.480 146.633 C 263.057 145.995,262.710 145.960,268.844 147.280 M119.202 149.694 C 119.585 150.411,119.432 154.146,119.002 154.577 C 118.619 154.959,116.019 155.514,112.789 155.904 C 111.442 156.066,109.691 156.341,108.898 156.514 C 106.939 156.941,106.330 156.392,106.298 154.172 C 106.270 152.206,106.748 151.722,109.252 151.183 C 113.229 150.326,117.093 149.393,117.228 149.257 C 117.615 148.870,118.915 149.158,119.202 149.694 M286.002 150.098 C 288.313 150.639,290.694 151.181,291.293 151.303 C 293.064 151.666,293.314 151.841,293.608 152.935 C 294.193 155.108,293.341 156.873,291.837 156.605 C 291.388 156.524,289.626 156.271,287.922 156.041 C 280.824 155.082,280.729 155.034,280.589 152.271 C 280.410 148.734,280.321 148.770,286.002 150.098 M101.351 152.476 C 102.405 153.247,102.133 157.463,100.991 158.075 C 100.736 158.211,99.246 158.577,97.679 158.888 C 96.112 159.199,94.504 159.528,94.106 159.618 C 93.108 159.844,92.718 159.029,92.687 156.652 C 92.656 154.219,93.200 153.671,96.106 153.206 C 97.200 153.031,98.585 152.722,99.184 152.520 C 100.597 152.042,100.753 152.039,101.351 152.476 M300.136 152.661 C 300.361 152.774,301.463 153.006,302.585 153.176 C 305.997 153.694,306.261 154.004,306.077 157.269 C 305.942 159.663,305.689 159.954,304.148 159.496 C 303.513 159.308,302.059 158.989,300.917 158.787 C 297.524 158.190,297.143 157.776,297.143 154.692 C 297.143 152.313,298.122 151.649,300.136 152.661 M89.271 155.954 C 89.452 156.292,89.537 157.314,89.476 158.402 C 89.333 160.933,89.059 161.171,86.049 161.384 C 84.742 161.477,83.404 161.638,83.075 161.742 C 81.694 162.181,80.635 158.893,81.701 157.474 C 82.094 156.950,84.093 156.196,85.136 156.178 C 85.529 156.171,86.218 155.998,86.667 155.792 C 87.918 155.219,88.911 155.281,89.271 155.954 M313.929 156.090 C 315.225 156.344,316.386 156.740,316.705 157.038 C 318.081 158.320,317.589 161.830,316.052 161.700 C 309.377 161.140,309.388 161.145,309.388 158.085 C 309.388 155.931,309.828 155.220,310.995 155.490 C 311.383 155.579,312.703 155.849,313.929 156.090 M216.455 156.855 C 219.744 157.085,226.050 157.398,230.469 157.550 C 237.871 157.805,244.449 158.226,245.442 158.508 C 245.667 158.571,247.503 158.751,249.524 158.907 C 254.723 159.309,262.449 160.196,266.122 160.815 C 267.844 161.104,270.415 161.538,271.837 161.778 C 273.259 162.018,275.909 162.439,277.727 162.714 C 279.545 162.989,282.178 163.460,283.578 163.761 C 286.878 164.472,293.999 165.907,299.456 166.961 C 300.653 167.192,302.980 167.673,304.626 168.029 C 306.272 168.385,308.170 168.754,308.844 168.849 C 309.517 168.944,311.231 169.315,312.653 169.673 C 314.075 170.031,317.503 170.871,320.272 171.540 C 334.375 174.946,334.820 175.067,335.442 175.690 L 336.054 176.302 336.054 189.920 C 336.054 204.493,336.042 204.626,334.694 204.626 C 333.375 204.626,333.333 204.253,333.333 192.372 C 333.333 178.900,333.306 178.776,330.368 178.776 C 328.687 178.776,328.707 178.623,328.707 190.814 C 328.707 203.780,328.904 202.937,325.987 202.504 C 322.905 202.047,323.150 203.083,322.993 189.855 C 322.846 177.574,322.847 177.576,321.541 177.180 C 317.362 175.913,317.557 175.381,317.519 188.115 C 317.478 201.757,317.546 201.463,314.708 200.251 C 312.412 199.271,312.528 199.977,312.520 186.939 C 312.512 173.218,312.738 174.211,309.524 173.759 C 308.925 173.675,308.171 173.533,307.848 173.444 C 306.159 172.980,306.122 173.245,306.122 185.868 C 306.122 198.693,306.051 199.148,304.146 198.379 C 303.811 198.244,303.209 198.063,302.808 197.978 C 301.170 197.629,301.224 198.071,301.224 185.138 L 301.224 173.309 300.575 172.659 C 300.217 172.301,299.452 171.928,298.874 171.830 C 298.296 171.731,297.426 171.550,296.941 171.426 C 294.868 170.898,294.916 170.616,294.840 183.822 C 294.761 197.527,294.944 196.581,292.408 196.345 C 288.596 195.989,288.714 196.448,288.755 182.088 C 288.791 169.330,289.013 170.269,285.850 169.806 C 284.803 169.653,283.694 169.457,283.386 169.371 C 283.049 169.278,282.577 169.417,282.202 169.721 L 281.578 170.226 281.617 181.163 C 281.665 194.777,281.653 194.830,278.515 194.830 C 276.515 194.830,276.614 195.445,276.463 182.070 C 276.301 167.796,276.675 169.061,272.489 168.650 C 268.798 168.288,269.116 167.143,269.112 180.800 C 269.107 194.487,269.311 193.574,266.235 193.684 C 262.744 193.808,263.012 194.901,262.970 180.383 C 262.931 166.700,263.011 167.241,260.983 166.939 C 260.442 166.858,259.415 166.660,258.699 166.498 C 255.470 165.768,255.510 165.598,255.510 179.874 C 255.510 193.504,255.732 192.527,252.594 192.726 C 249.595 192.917,249.830 194.015,249.738 179.387 C 249.646 164.632,250.020 166.034,246.074 165.646 C 240.693 165.117,241.241 163.694,241.148 178.433 C 241.064 191.831,241.130 191.343,239.351 191.677 C 236.251 192.258,236.190 192.000,236.190 178.143 C 236.190 163.765,236.653 164.978,230.937 164.348 C 226.519 163.861,226.940 162.476,226.935 177.525 C 226.930 192.529,227.177 191.398,223.883 191.507 L 221.521 191.585 221.101 190.772 C 220.739 190.073,220.680 188.199,220.680 177.435 L 220.680 164.911 220.036 164.488 C 218.825 163.695,211.949 164.025,211.508 164.898 C 211.246 165.417,211.164 168.592,211.160 178.266 C 211.156 192.874,211.386 191.730,208.471 191.613 C 204.931 191.470,205.170 192.500,205.170 177.418 L 205.170 164.929 204.565 164.505 C 203.544 163.790,195.022 163.890,194.286 164.626 C 193.757 165.154,193.741 165.536,193.737 177.619 C 193.733 192.432,193.946 191.396,190.875 191.507 C 187.309 191.635,187.630 192.921,187.554 178.185 C 187.519 171.251,187.488 165.434,187.486 165.258 C 187.476 164.219,180.480 163.406,179.156 164.290 C 178.619 164.649,178.192 165.733,178.240 166.617 C 178.265 167.093,178.274 172.656,178.259 178.980 C 178.227 192.442,178.405 191.652,175.436 191.509 C 172.939 191.389,173.070 192.160,173.065 177.525 C 173.060 162.350,173.575 163.831,168.520 164.438 C 165.359 164.818,164.986 164.921,164.426 165.572 L 163.810 166.289 163.810 178.128 C 163.810 192.341,163.996 191.553,160.632 191.560 C 157.587 191.567,157.823 192.665,157.823 178.504 L 157.823 166.298 157.087 165.719 C 156.565 165.308,156.148 165.191,155.658 165.317 C 155.277 165.414,153.945 165.589,152.696 165.704 C 148.951 166.052,149.252 164.859,149.252 179.350 L 149.252 191.611 148.457 192.295 C 147.787 192.872,147.486 192.953,146.552 192.810 C 144.410 192.483,144.490 192.984,144.490 179.874 C 144.490 165.388,144.613 165.846,140.881 166.492 C 139.948 166.653,138.674 166.859,138.051 166.950 C 135.912 167.261,136.008 166.642,136.043 179.934 C 136.080 194.204,136.175 193.730,133.281 193.737 C 130.759 193.744,130.884 194.414,130.884 180.944 C 130.884 166.994,131.296 168.289,126.972 168.637 C 122.149 169.025,122.613 167.651,122.449 182.026 C 122.374 188.594,122.252 194.024,122.177 194.090 C 121.219 194.946,119.254 195.058,118.329 194.310 L 117.687 193.790 117.551 181.997 C 117.476 175.511,117.306 170.036,117.174 169.830 C 116.898 169.402,113.036 169.596,111.559 170.111 C 110.216 170.579,110.204 170.686,110.200 182.771 C 110.195 196.200,110.142 196.403,106.628 196.450 C 105.247 196.468,105.296 196.911,105.291 184.248 C 105.286 170.990,105.384 171.537,103.022 171.620 C 98.579 171.775,98.776 171.147,98.771 185.163 C 98.769 191.602,98.677 197.005,98.567 197.170 C 97.915 198.147,93.705 198.734,93.045 197.940 C 92.720 197.548,92.643 195.577,92.596 186.421 C 92.564 180.345,92.533 175.101,92.528 174.768 C 92.508 173.649,91.513 173.290,89.792 173.782 C 87.306 174.493,87.500 173.436,87.347 187.106 C 87.193 200.857,87.415 199.707,84.805 200.267 C 84.038 200.431,83.151 200.631,82.833 200.711 C 81.382 201.075,81.361 200.906,81.361 188.854 C 81.361 175.699,81.480 176.246,78.745 176.848 C 75.990 177.455,76.195 176.496,76.158 188.954 C 76.121 201.756,76.176 201.298,74.568 202.109 C 71.259 203.778,71.293 203.893,71.293 190.781 C 71.293 181.973,71.218 179.594,70.930 179.200 C 70.354 178.413,67.428 178.707,66.489 179.646 L 65.791 180.344 65.736 191.737 C 65.679 203.724,65.638 204.125,64.439 204.506 C 62.877 205.002,62.857 204.816,62.857 189.889 L 62.857 176.302 63.492 175.667 C 63.928 175.231,64.926 174.846,66.689 174.433 C 71.669 173.268,83.702 170.335,85.850 169.763 C 87.048 169.444,89.007 169.029,90.204 168.841 C 92.378 168.499,97.155 167.568,102.041 166.535 C 103.463 166.235,105.483 165.860,106.531 165.702 C 107.578 165.545,109.109 165.244,109.932 165.034 C 110.755 164.824,112.286 164.523,113.333 164.366 C 114.381 164.208,116.401 163.835,117.823 163.536 C 119.245 163.237,121.510 162.805,122.857 162.576 C 124.204 162.346,127.388 161.793,129.932 161.346 C 135.735 160.327,149.224 158.756,157.857 158.094 C 159.597 157.961,164.740 157.715,169.286 157.549 C 173.832 157.382,181.102 157.015,185.442 156.733 C 194.671 156.134,206.830 156.181,216.455 156.855 M325.108 158.823 C 326.841 159.397,327.244 160.282,326.883 162.721 C 326.535 165.079,322.987 164.768,322.176 162.310 C 321.556 160.432,322.228 157.856,323.246 158.203 C 323.481 158.283,324.319 158.562,325.108 158.823 M77.769 158.694 C 78.227 159.152,78.176 161.776,77.691 162.714 C 76.912 164.220,73.603 164.978,73.346 163.709 C 72.748 160.758,73.029 159.286,74.239 159.028 C 74.639 158.943,75.211 158.767,75.510 158.638 C 76.310 158.294,77.395 158.321,77.769 158.694 M333.074 161.283 C 336.337 162.976,335.996 167.182,332.638 166.679 C 330.733 166.393,330.298 165.863,330.138 163.635 C 329.911 160.462,330.533 159.964,333.074 161.283 M68.517 161.143 C 69.361 161.987,68.727 165.644,67.608 166.377 C 65.769 167.582,64.918 166.711,65.004 163.714 C 65.057 161.852,67.465 160.090,68.517 161.143 M60.428 163.846 C 60.607 164.182,60.692 165.161,60.628 166.163 C 60.434 169.221,58.992 169.586,58.628 166.670 C 58.303 164.070,59.523 162.156,60.428 163.846 M339.854 163.792 C 340.159 164.361,340.240 167.303,339.971 168.005 C 339.709 168.686,338.794 168.520,338.497 167.737 C 337.632 165.464,338.852 161.919,339.854 163.792 M346.401 174.566 C 346.720 174.950,348.585 176.270,355.374 180.918 C 356.796 181.891,358.878 183.435,360.000 184.349 C 361.122 185.263,363.571 187.246,365.442 188.756 C 369.132 191.733,369.735 192.340,376.082 199.457 C 378.416 202.076,381.147 205.136,382.149 206.259 C 384.573 208.972,386.489 212.372,390.352 220.816 C 391.789 223.959,391.824 228.912,390.436 232.925 C 390.151 233.748,389.741 235.183,389.523 236.114 C 388.374 241.029,382.460 246.433,373.192 251.035 C 369.153 253.041,370.148 252.824,357.687 254.421 C 346.835 255.813,334.493 256.158,327.670 255.262 C 325.228 254.941,321.697 254.562,319.822 254.419 C 317.948 254.275,314.864 253.917,312.969 253.621 C 309.806 253.128,306.031 252.600,298.095 251.540 C 296.449 251.320,294.490 251.015,293.741 250.861 C 291.404 250.382,281.230 248.003,278.095 247.203 C 277.122 246.955,275.041 246.462,273.469 246.107 C 271.898 245.753,270.122 245.280,269.524 245.056 C 268.925 244.833,268.118 244.644,267.730 244.638 C 267.343 244.631,266.424 244.442,265.690 244.217 C 264.955 243.993,263.135 243.562,261.645 243.260 C 257.573 242.434,256.337 241.326,259.116 240.993 C 259.901 240.898,281.805 240.820,307.790 240.819 C 350.807 240.817,355.068 240.777,355.398 240.380 C 355.914 239.758,356.054 235.176,355.584 234.286 C 355.288 233.727,354.965 233.579,353.773 233.459 C 351.457 233.225,351.565 233.809,351.565 221.481 C 351.565 208.871,351.810 209.856,348.328 208.480 C 347.130 208.006,346.040 207.619,345.906 207.619 C 345.772 207.619,345.429 207.361,345.144 207.046 C 344.530 206.368,344.170 175.800,344.763 174.692 C 345.108 174.047,345.919 173.985,346.401 174.566 M55.238 177.687 C 55.437 178.058,55.504 182.704,55.451 192.352 C 55.365 208.164,55.485 207.262,53.385 207.835 C 52.833 207.986,51.769 208.361,51.020 208.668 C 50.272 208.975,49.325 209.295,48.915 209.380 C 47.370 209.697,47.356 209.803,47.341 221.377 C 47.325 233.083,47.300 233.271,45.771 233.419 C 44.346 233.557,44.012 234.359,44.123 237.366 C 44.184 239.005,44.351 240.078,44.591 240.367 C 44.936 240.781,48.567 240.817,91.394 240.820 C 116.930 240.822,138.099 240.898,138.435 240.988 C 139.736 241.336,138.452 242.745,136.474 243.140 C 136.019 243.231,135.034 243.533,134.286 243.809 C 133.537 244.086,132.190 244.555,131.293 244.850 C 127.962 245.947,126.909 246.314,125.714 246.795 C 123.963 247.501,119.139 248.969,108.707 251.969 C 106.014 252.743,103.503 253.503,103.129 253.657 C 102.755 253.810,101.286 254.156,99.864 254.426 C 96.523 255.058,92.595 255.872,88.844 256.709 C 82.945 258.025,81.456 258.315,77.423 258.935 C 73.443 259.547,70.743 259.988,65.714 260.846 C 58.932 262.004,34.254 261.059,29.733 259.468 C 28.651 259.087,27.610 258.771,27.420 258.766 C 27.230 258.761,26.585 258.520,25.986 258.231 C 25.388 257.942,24.791 257.701,24.660 257.696 C 24.529 257.691,23.427 257.244,22.211 256.702 C 5.897 249.433,0.460 233.519,9.806 220.394 C 10.100 219.982,10.340 219.559,10.340 219.455 C 10.340 219.213,12.003 216.429,13.510 214.150 C 16.018 210.355,21.089 204.407,25.506 200.078 C 31.323 194.377,39.704 187.285,44.332 184.149 C 45.616 183.278,48.021 181.654,49.677 180.538 C 51.333 179.423,52.977 178.203,53.330 177.827 C 54.104 177.003,54.843 176.949,55.238 177.687 M219.728 199.447 C 241.225 199.866,246.145 200.000,250.068 200.274 C 252.088 200.414,256.956 200.717,260.886 200.946 C 264.815 201.175,269.713 201.602,271.770 201.894 C 273.827 202.187,276.551 202.501,277.823 202.592 C 279.095 202.684,282.401 203.049,285.170 203.405 C 287.939 203.761,291.612 204.186,293.333 204.350 C 297.300 204.727,304.750 205.913,311.565 207.252 C 312.687 207.473,314.646 207.833,315.918 208.053 C 318.199 208.446,319.828 208.792,325.986 210.186 C 327.707 210.576,329.340 210.892,329.614 210.889 C 329.888 210.887,330.990 211.175,332.063 211.531 C 333.136 211.886,335.483 212.631,337.279 213.185 C 345.295 215.660,344.393 214.266,344.421 224.228 C 344.439 230.762,344.371 232.358,344.052 232.857 L 343.661 233.469 277.605 233.469 C 218.260 233.469,211.488 233.426,210.945 233.046 L 210.340 232.622 210.340 220.138 C 210.340 207.645,210.260 206.495,209.365 206.151 C 208.229 205.715,189.597 205.933,189.142 206.387 C 188.758 206.771,188.699 208.338,188.632 219.787 C 188.580 228.667,188.462 232.865,188.258 233.111 C 188.013 233.406,176.278 233.469,122.150 233.469 L 56.339 233.469 55.949 232.857 C 55.631 232.357,55.568 230.761,55.603 224.126 L 55.646 216.006 56.290 215.485 C 56.644 215.199,57.991 214.648,59.283 214.261 C 60.575 213.875,62.306 213.333,63.129 213.058 C 65.975 212.105,70.074 210.940,71.701 210.620 C 76.196 209.737,80.997 208.731,81.361 208.597 C 81.585 208.514,82.810 208.264,84.082 208.042 C 85.354 207.819,88.537 207.197,91.156 206.659 C 96.615 205.539,103.426 204.509,108.163 204.087 C 109.959 203.927,112.583 203.611,113.994 203.386 C 115.405 203.161,118.160 202.849,120.116 202.693 C 122.073 202.537,125.327 202.172,127.347 201.882 C 129.367 201.592,134.327 201.171,138.367 200.946 C 142.408 200.722,147.367 200.416,149.388 200.266 C 151.408 200.117,159.796 199.865,168.027 199.707 C 176.259 199.549,186.361 199.316,190.476 199.189 C 194.592 199.062,199.796 199.009,202.041 199.070 C 204.286 199.132,212.245 199.302,219.728 199.447 M206.713 210.766 C 206.926 211.057,207.076 211.995,207.078 213.045 C 207.080 214.027,207.091 218.795,207.103 223.641 C 207.129 234.654,208.000 233.436,200.061 233.486 C 193.506 233.528,193.197 233.466,193.197 232.109 C 193.197 230.896,193.786 230.625,195.006 231.279 C 197.341 232.531,198.766 231.710,198.772 229.108 C 198.777 226.790,197.979 226.085,195.983 226.645 C 193.524 227.336,193.503 227.335,193.196 226.528 C 192.435 224.526,193.501 223.230,195.135 224.171 C 197.372 225.458,198.912 224.454,198.912 221.707 C 198.912 219.428,197.261 218.473,195.215 219.569 C 193.828 220.313,193.513 220.285,193.172 219.391 C 192.438 217.459,193.425 216.085,194.977 216.876 C 197.300 218.061,198.646 217.346,198.856 214.817 C 199.050 212.477,197.416 211.325,195.389 212.373 C 193.712 213.240,192.371 211.977,193.566 210.656 C 194.213 209.941,206.183 210.040,206.713 210.766 M159.687 211.067 C 158.751 211.315,158.609 212.493,158.693 219.296 C 158.792 227.183,158.528 226.667,162.449 226.667 C 166.397 226.667,166.122 227.246,166.122 218.910 L 166.122 211.925 165.480 211.405 C 164.861 210.903,161.125 210.685,159.687 211.067 M170.612 211.429 C 170.313 211.728,170.064 212.248,170.059 212.585 C 169.839 226.968,169.757 226.667,173.892 226.667 C 177.618 226.667,177.415 227.121,177.415 218.776 C 177.415 210.423,177.623 210.884,173.862 210.884 C 171.519 210.884,171.083 210.957,170.612 211.429 M222.671 211.158 C 221.590 211.594,221.497 212.214,221.497 218.978 C 221.497 226.975,221.280 226.497,224.952 226.622 C 227.312 226.703,227.718 226.648,228.308 226.170 L 228.980 225.626 228.980 218.776 L 228.980 211.925 228.337 211.405 C 227.637 210.837,223.874 210.674,222.671 211.158 M233.642 211.448 L 232.925 212.012 232.925 218.795 C 232.925 227.110,232.719 226.667,236.599 226.667 C 240.477 226.667,240.273 227.102,240.268 218.844 C 240.266 215.139,240.174 211.974,240.064 211.809 C 239.332 210.714,234.893 210.464,233.642 211.448 M201.724 212.673 C 200.385 214.012,201.241 217.415,202.917 217.415 C 203.941 217.415,204.567 216.948,204.740 216.057 C 204.827 215.606,204.965 214.887,205.048 214.459 C 205.409 212.573,203.077 211.320,201.724 212.673 M143.265 214.069 C 138.759 214.185,139.048 213.793,139.048 219.780 C 139.048 225.940,138.725 225.578,144.218 225.578 C 149.711 225.578,149.388 225.942,149.388 219.770 C 149.388 213.575,149.740 213.903,143.265 214.069 M251.740 214.188 C 250.404 214.683,249.953 223.855,251.208 225.023 C 251.824 225.597,258.172 225.882,258.939 225.370 C 260.006 224.658,260.376 215.893,259.388 214.746 C 258.878 214.155,252.991 213.726,251.740 214.188 M111.945 215.446 C 110.915 216.134,110.925 224.439,111.957 225.193 C 112.806 225.813,118.413 225.735,118.993 225.095 C 119.567 224.460,119.733 216.308,119.184 215.647 C 118.820 215.208,112.563 215.034,111.945 215.446 M125.057 215.757 C 124.319 216.573,124.518 224.629,125.290 225.193 C 126.135 225.809,132.538 225.737,133.301 225.102 C 134.371 224.211,134.308 216.169,133.225 215.446 C 132.484 214.952,125.546 215.216,125.057 215.757 M266.382 215.986 C 265.813 216.700,265.792 216.918,265.928 220.670 C 266.112 225.753,265.939 225.578,270.778 225.578 C 275.558 225.578,275.374 225.788,275.374 220.314 C 275.374 214.955,275.636 215.238,270.679 215.238 L 266.978 215.238 266.382 215.986 M280.938 215.623 C 280.224 216.145,280.292 224.296,281.017 225.102 C 281.586 225.735,287.201 225.808,288.043 225.192 C 289.257 224.306,289.050 215.739,287.806 215.405 C 286.542 215.066,281.480 215.227,280.938 215.623 M293.900 216.372 C 292.604 216.851,292.219 225.380,293.453 226.281 C 294.344 226.931,298.901 226.813,299.592 226.122 C 300.391 225.323,300.420 217.826,299.627 216.847 C 299.097 216.192,295.250 215.872,293.900 216.372 M99.199 216.931 C 98.489 217.945,98.587 225.389,99.320 226.122 C 100.108 226.911,104.650 226.928,105.616 226.147 C 106.560 225.383,106.727 218.183,105.827 217.039 C 105.022 216.016,99.899 215.933,99.199 216.931 M88.979 217.885 C 88.146 218.945,88.242 225.655,89.100 226.281 C 89.998 226.937,93.668 226.805,94.312 226.094 C 95.240 225.068,95.251 218.763,94.325 217.838 C 93.253 216.765,89.836 216.796,88.979 217.885 M304.762 217.687 C 304.271 218.178,304.218 218.594,304.218 221.905 C 304.218 226.654,304.227 226.667,307.891 226.667 C 311.553 226.667,311.565 226.652,311.565 221.925 C 311.565 218.301,311.559 218.266,310.848 217.707 C 309.805 216.887,305.576 216.873,304.762 217.687 M79.848 218.618 C 79.046 219.204,79.046 225.694,79.848 226.280 C 80.636 226.857,83.339 226.793,83.889 226.185 C 84.603 225.396,84.668 219.575,83.971 218.804 C 83.341 218.108,80.708 217.989,79.848 218.618 M315.187 218.445 C 313.975 219.216,313.957 225.672,315.165 226.439 C 315.809 226.848,319.651 226.705,320.100 226.255 C 320.935 225.420,321.093 219.629,320.307 218.681 C 319.909 218.202,315.862 218.016,315.187 218.445 M64.507 219.524 C 63.925 219.997,63.785 221.476,63.918 225.782 C 63.954 226.945,64.786 227.755,65.944 227.755 C 67.563 227.755,67.878 227.083,67.981 223.411 L 68.071 220.210 67.332 219.629 C 66.436 218.924,65.299 218.882,64.507 219.524 M71.945 219.256 C 70.662 220.113,70.643 226.728,71.922 227.541 C 73.876 228.784,75.082 227.258,75.169 223.431 C 75.252 219.736,73.883 217.962,71.945 219.256 M201.908 219.535 C 201.164 220.137,200.866 222.207,201.353 223.384 C 202.250 225.549,204.189 225.238,204.788 222.832 C 205.458 220.139,203.678 218.101,201.908 219.535 M324.853 219.356 C 323.860 219.720,323.762 220.103,323.788 223.537 C 323.814 227.141,324.208 227.758,326.478 227.751 C 328.682 227.744,328.980 227.195,328.980 223.147 C 328.980 219.157,327.958 218.219,324.853 219.356 M332.517 219.592 C 331.263 220.846,331.883 227.313,333.291 227.667 C 335.244 228.157,336.332 221.036,334.521 219.612 C 333.625 218.907,333.206 218.902,332.517 219.592 M59.168 220.522 C 58.495 221.013,58.251 225.809,58.841 226.939 C 60.037 229.228,61.622 227.407,61.628 223.737 C 61.634 220.557,60.732 219.379,59.168 220.522 M339.010 220.656 C 338.113 221.382,338.030 226.235,338.897 227.195 C 340.438 228.899,341.545 227.326,341.438 223.583 C 341.341 220.239,340.612 219.359,339.010 220.656 M201.776 226.982 C 201.085 227.526,201.038 227.686,201.143 229.148 C 201.395 232.631,204.528 232.910,204.996 229.492 C 205.349 226.920,203.593 225.552,201.776 226.982 "
              stroke="none" fill="#1a468a" fill-rule="evenodd"></path>
        <path id="path1"
              d="M0.000 116.100 C 0.000 179.955,0.065 232.134,0.145 232.054 C 0.225 231.974,0.410 231.168,0.556 230.262 C 0.826 228.586,2.295 225.229,3.883 222.659 C 4.366 221.876,5.428 220.101,6.243 218.713 C 7.883 215.919,10.050 212.693,11.960 210.204 C 12.649 209.306,14.144 207.286,15.282 205.714 C 17.930 202.060,26.255 194.507,39.279 183.946 C 40.294 183.122,44.207 180.245,47.975 177.551 C 56.094 171.746,55.501 172.627,55.506 166.363 C 55.511 160.763,55.636 160.374,57.636 159.775 C 60.080 159.043,59.810 158.377,55.730 155.080 C 41.261 143.388,34.923 137.013,27.116 126.300 C 24.768 123.078,20.963 114.522,20.020 110.340 C 19.817 109.442,19.437 107.912,19.175 106.939 C 18.370 103.952,18.465 99.403,19.388 96.800 C 19.799 95.639,20.136 94.513,20.136 94.298 C 20.136 93.640,23.997 88.164,25.220 87.088 C 27.552 85.035,32.904 82.641,39.592 80.660 C 44.656 79.160,59.550 77.280,66.383 77.278 C 74.018 77.276,98.450 79.848,107.619 81.619 C 109.116 81.908,111.014 82.219,111.837 82.309 C 112.660 82.400,113.926 82.606,114.651 82.767 C 116.934 83.274,117.357 80.834,115.754 76.415 C 115.324 75.230,114.908 73.216,114.161 68.707 C 113.938 67.361,113.628 64.054,113.471 61.361 C 113.315 58.667,112.944 54.291,112.648 51.636 C 112.283 48.369,112.109 44.986,112.109 41.165 C 112.109 35.057,112.106 35.075,114.153 29.388 C 114.503 28.415,114.971 27.068,115.194 26.395 C 115.631 25.070,116.524 22.708,117.690 19.788 C 118.905 16.744,126.902 9.220,129.743 8.447 C 130.296 8.297,131.422 7.998,132.245 7.784 C 133.068 7.569,135.118 6.960,136.799 6.429 C 140.103 5.387,143.224 5.159,146.232 5.740 C 146.995 5.887,148.911 6.181,150.489 6.391 C 152.068 6.602,153.945 7.026,154.661 7.333 C 155.378 7.640,156.144 7.891,156.365 7.891 C 156.586 7.891,158.822 8.733,161.335 9.762 C 166.730 11.971,167.237 12.292,183.204 23.628 C 185.172 25.025,188.260 27.535,190.068 29.206 C 191.875 30.878,194.863 33.592,196.709 35.238 C 198.554 36.884,201.363 39.762,202.951 41.633 C 204.540 43.503,207.073 46.442,208.580 48.163 C 212.370 52.489,213.077 53.395,224.506 68.578 C 227.572 72.651,228.789 74.292,233.822 81.147 C 236.339 84.574,236.070 84.560,244.626 81.722 C 245.299 81.499,247.075 80.972,248.571 80.552 C 250.068 80.132,252.333 79.484,253.605 79.113 C 258.002 77.829,261.090 77.003,261.486 77.005 C 261.704 77.006,262.990 76.710,264.343 76.347 C 265.696 75.984,268.395 75.302,270.340 74.832 C 272.286 74.362,274.918 73.691,276.190 73.342 C 278.925 72.592,282.907 71.600,284.626 71.240 C 285.299 71.099,286.707 70.747,287.755 70.458 C 294.338 68.640,298.903 67.766,304.762 67.203 C 306.483 67.038,309.843 66.666,312.229 66.377 C 315.950 65.925,318.390 65.850,329.374 65.850 L 342.181 65.850 346.532 67.083 C 352.219 68.694,355.375 69.763,356.802 70.562 C 360.141 72.432,362.404 74.032,365.469 76.693 C 366.537 77.619,369.361 82.208,370.855 85.442 C 372.979 90.044,373.145 96.923,371.232 101.088 C 370.614 102.435,370.030 104.150,369.934 104.898 C 369.269 110.122,360.140 121.739,348.983 131.557 C 341.600 138.055,336.682 142.050,328.503 148.196 C 321.776 153.250,321.071 154.039,322.925 154.436 C 323.337 154.524,324.653 154.890,325.850 155.251 C 327.048 155.611,329.374 156.281,331.020 156.740 C 345.584 160.801,344.490 160.181,344.490 164.373 C 344.490 168.276,344.357 168.092,349.388 171.162 C 350.211 171.665,351.497 172.462,352.245 172.934 C 352.993 173.407,355.214 174.793,357.180 176.015 C 361.322 178.590,361.738 178.914,370.761 186.602 C 381.978 196.159,384.269 198.288,387.245 201.919 C 392.130 207.881,393.662 209.998,395.257 212.991 C 396.115 214.601,397.035 216.230,397.300 216.612 C 397.819 217.359,399.031 221.407,399.332 223.401 C 399.434 224.075,399.622 224.810,399.750 225.034 C 399.880 225.261,399.987 175.469,399.992 112.721 L 400.000 0.000 200.000 0.000 L 0.000 0.000 0.000 116.100 M143.673 15.535 C 142.401 15.822,140.259 16.185,138.912 16.342 C 127.385 17.679,120.723 26.448,119.594 41.769 C 119.505 42.966,119.236 45.447,118.994 47.281 C 118.589 50.364,118.590 50.952,119.006 55.037 C 119.254 57.467,119.581 61.048,119.733 62.993 C 120.256 69.691,122.064 79.304,123.508 83.061 C 123.913 84.115,125.127 84.759,127.415 85.136 C 128.500 85.314,130.796 85.761,132.517 86.128 C 134.238 86.495,136.565 86.975,137.687 87.195 C 146.716 88.965,154.826 90.702,156.624 91.251 C 157.807 91.612,159.510 92.092,160.408 92.317 C 162.663 92.882,164.918 93.512,167.483 94.295 C 168.680 94.660,170.225 95.080,170.917 95.228 C 171.608 95.375,172.526 95.636,172.957 95.806 C 173.389 95.977,174.782 96.396,176.054 96.739 C 180.096 97.828,181.580 98.251,183.734 98.930 C 186.357 99.756,186.354 99.756,188.239 98.813 C 189.943 97.962,191.942 97.285,193.553 97.014 C 195.506 96.686,195.646 96.328,195.646 91.674 L 195.646 87.565 196.417 86.844 C 197.646 85.694,197.823 85.116,197.823 82.255 C 197.823 79.089,198.148 78.367,199.574 78.367 C 200.985 78.367,201.182 78.840,201.231 82.341 C 201.272 85.272,201.316 85.503,201.965 86.199 C 203.157 87.477,203.265 87.955,203.265 91.922 C 203.265 96.345,203.472 96.827,204.994 95.943 C 205.465 95.670,206.585 95.225,207.483 94.955 C 208.381 94.684,210.156 94.082,211.429 93.617 C 212.701 93.152,214.599 92.478,215.646 92.120 C 216.694 91.762,219.327 90.838,221.497 90.068 C 223.667 89.297,226.046 88.480,226.784 88.254 C 231.812 86.707,231.896 86.424,228.639 82.020 C 213.214 61.163,211.882 59.595,197.091 44.872 L 184.354 32.192 178.231 28.159 C 164.806 19.316,165.442 19.657,158.919 17.792 C 158.100 17.558,157.097 17.194,156.691 16.984 C 153.849 15.514,147.092 14.762,143.673 15.535 M327.211 73.485 C 326.014 73.602,322.707 73.835,319.864 74.003 C 317.020 74.171,312.490 74.598,309.796 74.951 C 307.102 75.305,303.367 75.744,301.497 75.926 C 299.626 76.109,297.825 76.361,297.495 76.486 C 297.165 76.610,295.879 76.895,294.638 77.120 C 293.397 77.344,290.238 78.010,287.619 78.601 C 285.000 79.192,280.653 80.129,277.959 80.684 C 275.265 81.238,271.347 82.052,269.252 82.493 C 267.156 82.933,264.463 83.484,263.265 83.715 C 260.447 84.261,254.197 86.101,249.932 87.640 C 249.184 87.910,248.020 88.273,247.347 88.446 C 243.184 89.517,241.082 90.511,241.095 91.403 C 241.098 91.641,242.353 93.759,243.884 96.108 C 245.414 98.458,247.388 101.519,248.270 102.911 C 249.152 104.303,250.308 106.116,250.839 106.939 C 252.544 109.586,252.947 110.269,255.241 114.422 C 256.481 116.667,257.776 118.993,258.119 119.592 C 258.461 120.190,259.008 121.170,259.334 121.769 C 262.610 127.788,263.016 128.261,265.986 129.517 C 267.184 130.022,268.776 130.705,269.524 131.034 C 270.272 131.363,271.680 131.972,272.653 132.388 C 273.626 132.804,275.340 133.540,276.463 134.024 C 280.789 135.890,287.111 138.541,288.091 138.900 C 289.550 139.435,289.888 139.596,298.211 143.704 C 310.203 149.623,316.414 152.653,316.557 152.653 C 316.735 152.653,324.654 147.082,326.744 145.487 C 327.747 144.721,344.181 128.510,346.814 125.688 C 355.563 116.314,358.644 109.991,360.310 97.991 L 360.917 93.618 360.215 91.367 C 359.830 90.129,359.258 88.257,358.946 87.207 C 357.512 82.393,354.972 80.174,346.805 76.602 C 344.774 75.713,340.692 74.739,336.599 74.166 C 334.878 73.925,332.980 73.612,332.381 73.469 C 331.158 73.178,330.340 73.181,327.211 73.485 M67.483 87.915 C 66.510 88.036,63.686 88.261,61.207 88.415 C 54.787 88.814,46.575 89.769,45.449 90.248 C 44.921 90.473,43.329 91.080,41.910 91.598 C 37.111 93.349,30.417 98.172,29.010 100.894 C 27.570 103.677,27.384 112.152,28.670 116.327 C 30.590 122.556,34.775 129.315,41.648 137.286 C 45.817 142.122,46.339 142.663,49.393 145.306 C 50.862 146.578,54.607 149.843,57.715 152.561 C 64.384 158.394,63.603 158.046,67.647 156.986 C 69.428 156.519,71.558 155.979,72.381 155.786 C 75.593 155.031,78.854 154.203,80.544 153.712 C 81.517 153.430,83.010 153.071,83.862 152.915 C 86.254 152.477,89.020 151.450,91.207 150.190 C 97.243 146.711,106.000 141.580,107.211 140.814 C 109.347 139.461,111.717 138.232,122.118 133.085 C 126.350 130.990,130.188 129.010,130.645 128.684 C 131.681 127.946,131.642 127.657,129.756 122.177 C 129.009 120.007,128.175 117.497,127.903 116.599 C 127.630 115.701,127.165 114.354,126.869 113.605 C 126.283 112.127,125.302 109.126,123.530 103.401 C 122.905 101.381,122.039 98.667,121.605 97.371 C 121.171 96.075,120.816 94.824,120.816 94.590 C 120.816 93.837,119.390 91.126,118.802 90.758 C 118.488 90.563,116.639 90.253,114.694 90.070 C 112.748 89.887,109.503 89.502,107.483 89.215 C 105.463 88.927,101.340 88.575,98.322 88.431 C 95.304 88.287,91.447 88.047,89.751 87.897 C 86.155 87.578,70.070 87.591,67.483 87.915 M125.598 91.312 C 125.093 91.816,125.049 92.599,125.480 93.404 C 125.762 93.932,126.405 96.182,127.519 100.544 C 127.748 101.442,128.164 102.850,128.442 103.673 C 128.720 104.497,129.129 105.905,129.351 106.803 C 129.801 108.627,131.271 112.940,131.744 113.823 C 131.913 114.138,132.208 114.953,132.401 115.634 C 133.127 118.205,135.583 124.781,135.988 125.238 C 136.666 126.002,136.433 126.086,144.898 122.042 C 146.245 121.399,148.694 120.238,150.340 119.463 C 151.986 118.688,154.068 117.686,154.966 117.238 C 155.864 116.790,157.150 116.202,157.823 115.932 C 158.497 115.662,161.007 114.616,163.401 113.607 C 165.796 112.598,168.612 111.433,169.660 111.017 C 176.249 108.404,176.971 108.011,179.302 105.771 C 182.092 103.090,181.900 102.723,177.143 101.644 C 175.422 101.253,173.399 100.757,172.648 100.541 C 171.896 100.325,170.427 99.975,169.382 99.764 C 167.375 99.359,164.186 98.593,160.136 97.543 C 158.789 97.194,156.961 96.764,156.073 96.588 C 155.185 96.412,153.982 96.099,153.400 95.894 C 152.818 95.689,151.296 95.391,150.018 95.232 C 148.739 95.073,147.049 94.775,146.262 94.570 C 145.475 94.365,143.866 94.061,142.687 93.894 C 141.509 93.727,139.381 93.349,137.959 93.055 C 135.403 92.525,126.503 90.884,126.188 90.884 C 126.099 90.884,125.833 91.077,125.598 91.312 M233.422 92.111 C 233.263 92.270,227.047 94.482,224.626 95.240 C 223.728 95.522,221.769 96.194,220.272 96.733 C 218.776 97.273,216.695 97.989,215.649 98.324 C 212.862 99.216,212.398 100.398,214.499 101.248 C 217.325 102.391,222.794 107.426,225.119 111.023 C 227.088 114.070,227.060 114.049,231.156 115.466 C 233.102 116.139,235.918 117.134,237.415 117.678 C 238.912 118.222,240.847 118.897,241.717 119.177 C 242.586 119.458,243.443 119.808,243.621 119.955 C 243.800 120.102,244.619 120.465,245.442 120.763 C 248.198 121.759,250.733 122.755,252.608 123.578 C 256.185 125.147,256.092 124.095,252.114 117.959 C 251.144 116.462,248.907 112.972,246.411 109.063 C 240.001 99.019,235.633 92.529,235.085 92.236 C 234.558 91.953,233.648 91.885,233.422 92.111 M206.259 107.790 C 206.259 108.109,206.615 108.996,207.050 109.763 C 207.486 110.529,208.088 111.911,208.388 112.832 C 208.688 113.754,209.075 114.773,209.249 115.096 C 209.589 115.733,210.263 118.081,210.634 119.926 C 210.762 120.559,211.058 123.008,211.294 125.368 C 212.120 133.645,212.392 134.263,215.315 134.516 C 217.951 134.743,218.370 134.301,218.136 131.537 C 217.443 123.333,211.619 110.316,207.483 107.724 C 206.439 107.071,206.259 107.080,206.259 107.790 M190.206 109.564 C 189.726 110.109,188.672 111.940,187.862 113.631 C 187.052 115.322,186.281 116.773,186.150 116.854 C 186.018 116.935,185.833 117.312,185.737 117.692 C 185.642 118.071,185.274 119.021,184.919 119.803 C 184.563 120.585,184.145 121.653,183.990 122.177 C 183.834 122.701,183.408 123.925,183.044 124.898 C 182.175 127.222,181.554 132.691,182.053 133.638 C 182.558 134.597,182.805 134.677,184.753 134.513 C 187.378 134.293,187.483 134.107,187.483 129.664 C 187.483 127.081,187.604 125.716,187.908 124.864 C 188.142 124.209,188.455 123.000,188.604 122.177 C 188.920 120.429,189.872 116.797,191.180 112.352 C 192.423 108.125,192.152 107.347,190.206 109.564 M196.413 109.588 C 194.590 111.536,192.475 119.293,191.832 126.395 C 191.669 128.190,191.438 130.307,191.318 131.098 C 190.870 134.051,191.283 134.393,194.646 133.847 C 198.120 133.282,197.841 134.458,197.758 120.768 C 197.683 108.325,197.673 108.241,196.413 109.588 M201.576 109.211 C 201.096 109.691,200.907 130.562,201.368 132.274 C 201.668 133.387,201.783 133.451,204.218 133.858 C 205.116 134.008,206.115 134.207,206.437 134.301 C 208.305 134.844,208.966 128.371,207.509 123.814 C 207.149 122.689,206.216 119.565,205.435 116.871 C 203.556 110.386,202.499 108.288,201.576 109.211 M214.694 111.395 C 214.694 111.451,215.466 113.196,216.410 115.273 C 219.409 121.869,220.841 126.576,221.190 130.988 C 221.516 135.098,222.692 136.302,225.374 135.268 C 226.749 134.738,225.855 130.592,223.105 124.744 C 222.819 124.136,222.585 123.551,222.585 123.446 C 222.585 123.224,220.888 119.591,219.132 116.054 C 217.658 113.084,214.694 109.973,214.694 111.395 M179.782 117.347 C 177.886 120.252,176.360 123.129,175.920 124.626 C 175.810 125.000,175.483 125.698,175.194 126.176 C 174.581 127.189,173.294 133.532,173.524 134.410 C 173.790 135.428,176.181 135.933,176.860 135.116 C 177.040 134.899,177.308 133.888,177.456 132.871 C 178.289 127.135,179.824 121.265,181.334 118.041 C 182.402 115.761,182.673 114.286,182.024 114.286 C 181.890 114.286,180.881 115.663,179.782 117.347 M168.163 115.522 C 167.340 115.881,165.503 116.612,164.082 117.147 C 159.500 118.872,159.362 118.932,152.925 121.977 C 151.204 122.791,149.122 123.771,148.299 124.156 C 147.476 124.540,145.229 125.599,143.306 126.509 C 141.383 127.419,139.708 128.163,139.585 128.163 C 138.204 128.163,137.308 130.450,138.094 131.970 C 138.490 132.736,139.243 134.642,140.560 138.211 C 140.915 139.173,141.554 140.520,141.980 141.204 C 142.830 142.570,142.765 142.555,145.714 142.060 C 146.612 141.909,148.816 141.599,150.612 141.371 C 155.449 140.757,155.853 140.605,156.463 139.184 C 157.163 137.549,157.817 137.209,160.680 136.987 C 164.606 136.684,165.260 135.946,165.970 131.019 C 166.516 127.238,168.628 120.559,170.122 117.894 C 171.628 115.206,170.903 114.328,168.163 115.522 M229.952 118.480 C 229.705 118.777,229.734 119.100,230.082 119.908 C 232.622 125.806,233.329 128.269,233.734 132.644 C 234.087 136.453,234.101 136.468,237.823 136.874 C 241.438 137.269,241.754 137.404,242.386 138.829 C 243.178 140.617,244.489 141.038,251.156 141.642 C 252.129 141.730,254.946 142.101,257.415 142.467 C 263.794 143.412,263.646 143.398,264.373 143.122 C 264.790 142.963,265.034 142.655,265.034 142.285 C 265.034 141.686,259.287 130.194,258.694 129.609 C 258.377 129.295,247.366 124.809,244.355 123.767 C 243.532 123.482,242.361 123.008,241.752 122.713 C 241.143 122.418,240.551 122.177,240.436 122.177 C 240.029 122.177,234.864 119.928,232.585 118.759 C 231.112 118.003,230.409 117.928,229.952 118.480 M130.769 132.657 C 130.215 133.033,129.371 133.516,128.894 133.730 C 128.417 133.945,127.721 134.307,127.347 134.536 C 126.973 134.764,124.340 136.184,121.497 137.691 C 118.653 139.198,116.020 140.616,115.646 140.842 C 115.272 141.069,114.537 141.443,114.014 141.675 C 113.490 141.906,112.878 142.250,112.653 142.440 C 112.429 142.630,111.082 143.402,109.660 144.155 C 103.753 147.285,103.401 147.512,103.401 148.205 C 103.401 148.727,104.753 148.669,107.338 148.037 C 112.026 146.891,120.326 145.286,124.354 144.747 C 125.626 144.577,128.297 144.143,130.290 143.783 C 132.283 143.424,134.457 143.129,135.120 143.129 C 136.305 143.129,137.415 142.464,137.415 141.753 C 137.415 141.448,135.031 135.836,134.705 135.374 C 134.599 135.224,134.350 134.673,134.151 134.150 C 133.324 131.971,132.388 131.558,130.769 132.657 M267.319 133.989 C 267.171 134.373,267.794 135.831,268.433 136.599 C 268.619 136.823,269.407 138.231,270.183 139.728 C 272.056 143.342,272.526 143.724,275.848 144.326 C 277.308 144.590,279.361 144.983,280.408 145.200 C 281.456 145.416,283.721 145.834,285.442 146.128 C 287.163 146.423,289.306 146.839,290.204 147.054 C 295.028 148.207,299.107 148.753,298.884 148.217 C 298.737 147.862,296.539 146.394,296.155 146.395 C 296.025 146.395,295.184 146.035,294.286 145.594 C 292.112 144.529,289.015 143.129,288.830 143.129 C 288.749 143.129,287.739 142.686,286.586 142.144 C 285.433 141.602,281.735 139.879,278.367 138.315 C 275.000 136.751,271.387 135.051,270.338 134.538 C 268.268 133.526,267.547 133.395,267.319 133.989 M189.081 142.220 C 188.455 142.975,188.642 147.674,189.324 148.357 C 189.951 148.984,192.638 148.820,193.347 148.111 C 193.982 147.476,193.901 142.813,193.244 142.219 C 192.547 141.589,189.603 141.589,189.081 142.220 M197.434 142.196 C 196.995 142.636,196.819 146.347,197.175 147.675 C 197.492 148.857,200.450 149.171,201.488 148.133 C 202.144 147.477,202.081 142.829,201.407 142.219 C 200.737 141.612,198.034 141.597,197.434 142.196 M205.683 142.345 C 204.935 143.092,205.017 147.447,205.794 148.223 C 206.358 148.788,209.049 148.881,209.578 148.354 C 210.163 147.771,210.233 142.789,209.665 142.220 C 208.966 141.522,206.426 141.601,205.683 142.345 M215.510 141.958 C 213.512 142.672,214.156 148.844,216.228 148.844 C 218.909 148.844,219.478 143.940,216.988 142.298 C 216.136 141.736,216.132 141.735,215.510 141.958 M181.858 142.437 C 180.616 142.978,180.336 143.698,180.455 146.048 C 180.584 148.604,180.921 148.935,183.234 148.777 C 185.376 148.630,185.578 148.320,185.578 145.172 C 185.578 141.970,184.595 141.247,181.858 142.437 M174.036 143.397 C 172.639 143.666,172.245 144.266,172.245 146.122 C 172.245 148.125,172.560 148.471,174.560 148.664 C 176.833 148.883,177.415 148.244,177.415 145.530 C 177.415 143.191,176.875 142.850,174.036 143.397 M222.838 143.709 C 222.326 144.667,222.632 148.004,223.276 148.486 C 225.386 150.064,227.758 147.225,226.686 144.405 C 226.217 143.170,223.399 142.660,222.838 143.709 M166.095 144.606 C 163.967 145.533,164.664 149.932,166.939 149.932 C 168.229 149.932,168.980 148.829,168.980 146.933 C 168.980 144.261,168.246 143.670,166.095 144.606 M231.437 144.657 C 230.656 145.437,230.965 148.781,231.880 149.463 C 233.578 150.727,235.102 149.536,235.102 146.945 C 235.102 144.791,232.763 143.331,231.437 144.657 M149.932 145.179 C 140.912 145.931,141.154 145.826,141.281 148.930 C 141.395 151.724,141.628 151.810,146.894 151.012 C 149.089 150.680,151.952 150.270,153.256 150.102 C 156.151 149.728,156.472 149.461,156.544 147.368 C 156.604 145.651,155.952 144.726,154.732 144.795 C 154.412 144.813,152.252 144.986,149.932 145.179 M243.218 144.941 C 242.043 145.264,241.990 148.802,243.150 149.562 C 243.501 149.792,244.934 150.078,246.443 150.219 C 247.913 150.357,250.362 150.664,251.884 150.901 C 258.100 151.869,258.776 151.664,258.776 148.810 C 258.776 146.755,258.269 145.868,257.075 145.832 C 256.738 145.821,256.156 145.773,255.782 145.725 C 254.960 145.619,247.909 145.072,245.442 144.922 C 244.469 144.864,243.469 144.872,243.218 144.941 M132.789 146.691 C 131.816 146.982,129.551 147.477,127.755 147.793 C 122.922 148.644,122.197 149.213,122.616 151.831 C 122.885 153.514,123.102 153.589,126.601 153.205 C 134.559 152.334,136.663 151.721,136.969 150.188 C 137.710 146.486,136.597 145.556,132.789 146.691 M262.480 146.633 C 261.245 147.997,262.160 151.661,263.810 151.959 C 267.443 152.615,268.623 152.778,274.053 153.373 C 277.033 153.699,277.325 148.931,274.356 148.421 C 273.793 148.325,271.313 147.811,268.844 147.280 C 262.710 145.960,263.057 145.995,262.480 146.633 M117.228 149.257 C 117.093 149.393,113.229 150.326,109.252 151.183 C 106.748 151.722,106.270 152.206,106.298 154.172 C 106.330 156.392,106.939 156.941,108.898 156.514 C 109.691 156.341,111.442 156.066,112.789 155.904 C 118.981 155.157,119.273 154.997,119.411 152.271 C 119.542 149.668,118.398 148.088,117.228 149.257 M280.798 149.694 C 280.415 150.411,280.568 154.146,280.998 154.577 C 281.386 154.964,283.923 155.501,287.922 156.041 C 289.626 156.271,291.388 156.524,291.837 156.605 C 293.341 156.873,294.193 155.108,293.608 152.935 C 293.314 151.841,293.064 151.666,291.293 151.303 C 290.694 151.181,288.313 150.639,286.002 150.098 C 281.061 148.943,281.194 148.953,280.798 149.694 M99.184 152.520 C 98.585 152.722,97.200 153.031,96.106 153.206 C 93.200 153.671,92.656 154.219,92.687 156.652 C 92.718 159.029,93.108 159.844,94.106 159.618 C 94.504 159.528,96.112 159.199,97.679 158.888 C 101.769 158.076,102.245 157.573,101.978 154.350 C 101.799 152.192,101.239 151.825,99.184 152.520 M297.737 152.540 C 297.232 152.894,297.143 153.216,297.143 154.692 C 297.143 157.776,297.524 158.190,300.917 158.787 C 302.059 158.989,303.513 159.308,304.148 159.496 C 305.689 159.954,305.942 159.663,306.077 157.269 C 306.261 154.004,305.997 153.694,302.585 153.176 C 301.463 153.006,300.361 152.774,300.136 152.661 C 299.183 152.182,298.311 152.138,297.737 152.540 M86.667 155.792 C 86.218 155.998,85.529 156.171,85.136 156.178 C 84.093 156.196,82.094 156.950,81.701 157.474 C 80.635 158.893,81.694 162.181,83.075 161.742 C 83.404 161.638,84.742 161.477,86.049 161.384 C 89.059 161.171,89.333 160.933,89.476 158.402 C 89.640 155.493,88.874 154.781,86.667 155.792 M309.839 155.778 C 309.173 156.444,309.207 159.716,309.889 160.559 C 310.390 161.177,310.858 161.264,316.052 161.700 C 317.589 161.830,318.081 158.320,316.705 157.038 C 316.386 156.740,315.225 156.344,313.929 156.090 C 312.703 155.849,311.383 155.579,310.995 155.490 C 310.527 155.382,310.138 155.479,309.839 155.778 M185.442 156.733 C 181.102 157.015,173.832 157.382,169.286 157.549 C 164.740 157.715,159.597 157.961,157.857 158.094 C 149.224 158.756,135.735 160.327,129.932 161.346 C 127.388 161.793,124.204 162.346,122.857 162.576 C 121.510 162.805,119.245 163.237,117.823 163.536 C 116.401 163.835,114.381 164.208,113.333 164.366 C 112.286 164.523,110.755 164.824,109.932 165.034 C 109.109 165.244,107.578 165.545,106.531 165.702 C 105.483 165.860,103.463 166.235,102.041 166.535 C 97.155 167.568,92.378 168.499,90.204 168.841 C 89.007 169.029,87.048 169.444,85.850 169.763 C 83.702 170.335,71.669 173.268,66.689 174.433 C 64.926 174.846,63.928 175.231,63.492 175.667 L 62.857 176.302 62.857 189.889 C 62.857 204.816,62.877 205.002,64.439 204.506 C 65.638 204.125,65.679 203.724,65.736 191.737 L 65.791 180.344 66.489 179.646 C 67.428 178.707,70.354 178.413,70.930 179.200 C 71.218 179.594,71.293 181.973,71.293 190.781 C 71.293 203.893,71.259 203.778,74.568 202.109 C 76.176 201.298,76.121 201.756,76.158 188.954 C 76.195 176.496,75.990 177.455,78.745 176.848 C 81.480 176.246,81.361 175.699,81.361 188.854 C 81.361 200.906,81.382 201.075,82.833 200.711 C 83.151 200.631,84.038 200.431,84.805 200.267 C 87.415 199.707,87.193 200.857,87.347 187.106 C 87.500 173.436,87.306 174.493,89.792 173.782 C 91.513 173.290,92.508 173.649,92.528 174.768 C 92.533 175.101,92.564 180.345,92.596 186.421 C 92.643 195.577,92.720 197.548,93.045 197.940 C 93.705 198.734,97.915 198.147,98.567 197.170 C 98.677 197.005,98.769 191.602,98.771 185.163 C 98.776 171.147,98.579 171.775,103.022 171.620 C 105.384 171.537,105.286 170.990,105.291 184.248 C 105.296 196.911,105.247 196.468,106.628 196.450 C 110.142 196.403,110.195 196.200,110.200 182.771 C 110.204 170.686,110.216 170.579,111.559 170.111 C 113.036 169.596,116.898 169.402,117.174 169.830 C 117.306 170.036,117.476 175.511,117.551 181.997 L 117.687 193.790 118.329 194.310 C 119.254 195.058,121.219 194.946,122.177 194.090 C 122.252 194.024,122.374 188.594,122.449 182.026 C 122.613 167.651,122.149 169.025,126.972 168.637 C 131.296 168.289,130.884 166.994,130.884 180.944 C 130.884 194.414,130.759 193.744,133.281 193.737 C 136.175 193.730,136.080 194.204,136.043 179.934 C 136.008 166.642,135.912 167.261,138.051 166.950 C 138.674 166.859,139.948 166.653,140.881 166.492 C 144.613 165.846,144.490 165.388,144.490 179.874 C 144.490 192.984,144.410 192.483,146.552 192.810 C 147.486 192.953,147.787 192.872,148.457 192.295 L 149.252 191.611 149.252 179.350 C 149.252 164.859,148.951 166.052,152.696 165.704 C 153.945 165.589,155.277 165.414,155.658 165.317 C 156.148 165.191,156.565 165.308,157.087 165.719 L 157.823 166.298 157.823 178.504 C 157.823 192.665,157.587 191.567,160.632 191.560 C 163.996 191.553,163.810 192.341,163.810 178.128 L 163.810 166.289 164.426 165.572 C 164.986 164.921,165.359 164.818,168.520 164.438 C 173.575 163.831,173.060 162.350,173.065 177.525 C 173.070 192.160,172.939 191.389,175.436 191.509 C 178.405 191.652,178.227 192.442,178.259 178.980 C 178.274 172.656,178.265 167.093,178.240 166.617 C 178.192 165.733,178.619 164.649,179.156 164.290 C 180.480 163.406,187.476 164.219,187.486 165.258 C 187.488 165.434,187.519 171.251,187.554 178.185 C 187.630 192.921,187.309 191.635,190.875 191.507 C 193.946 191.396,193.733 192.432,193.737 177.619 C 193.741 165.536,193.757 165.154,194.286 164.626 C 195.022 163.890,203.544 163.790,204.565 164.505 L 205.170 164.929 205.170 177.418 C 205.170 192.500,204.931 191.470,208.471 191.613 C 211.386 191.730,211.156 192.874,211.160 178.266 C 211.164 168.592,211.246 165.417,211.508 164.898 C 211.949 164.025,218.825 163.695,220.036 164.488 L 220.680 164.911 220.680 177.435 C 220.680 188.199,220.739 190.073,221.101 190.772 L 221.521 191.585 223.883 191.507 C 227.177 191.398,226.930 192.529,226.935 177.525 C 226.940 162.476,226.519 163.861,230.937 164.348 C 236.653 164.978,236.190 163.765,236.190 178.143 C 236.190 192.000,236.251 192.258,239.351 191.677 C 241.130 191.343,241.064 191.831,241.148 178.433 C 241.241 163.694,240.693 165.117,246.074 165.646 C 250.020 166.034,249.646 164.632,249.738 179.387 C 249.830 194.015,249.595 192.917,252.594 192.726 C 255.732 192.527,255.510 193.504,255.510 179.874 C 255.510 165.598,255.470 165.768,258.699 166.498 C 259.415 166.660,260.442 166.858,260.983 166.939 C 263.011 167.241,262.931 166.700,262.970 180.383 C 263.012 194.901,262.744 193.808,266.235 193.684 C 269.311 193.574,269.107 194.487,269.112 180.800 C 269.116 167.143,268.798 168.288,272.489 168.650 C 276.675 169.061,276.301 167.796,276.463 182.070 C 276.614 195.445,276.515 194.830,278.515 194.830 C 281.653 194.830,281.665 194.777,281.617 181.163 L 281.578 170.226 282.202 169.721 C 282.577 169.417,283.049 169.278,283.386 169.371 C 283.694 169.457,284.803 169.653,285.850 169.806 C 289.013 170.269,288.791 169.330,288.755 182.088 C 288.714 196.448,288.596 195.989,292.408 196.345 C 294.944 196.581,294.761 197.527,294.840 183.822 C 294.916 170.616,294.868 170.898,296.941 171.426 C 297.426 171.550,298.296 171.731,298.874 171.830 C 299.452 171.928,300.217 172.301,300.575 172.659 L 301.224 173.309 301.224 185.138 C 301.224 198.071,301.170 197.629,302.808 197.978 C 303.209 198.063,303.811 198.244,304.146 198.379 C 306.051 199.148,306.122 198.693,306.122 185.868 C 306.122 173.245,306.159 172.980,307.848 173.444 C 308.171 173.533,308.925 173.675,309.524 173.759 C 312.738 174.211,312.512 173.218,312.520 186.939 C 312.528 199.977,312.412 199.271,314.708 200.251 C 317.546 201.463,317.478 201.757,317.519 188.115 C 317.557 175.381,317.362 175.913,321.541 177.180 C 322.847 177.576,322.846 177.574,322.993 189.855 C 323.150 203.083,322.905 202.047,325.987 202.504 C 328.904 202.937,328.707 203.780,328.707 190.814 C 328.707 178.623,328.687 178.776,330.368 178.776 C 333.306 178.776,333.333 178.900,333.333 192.372 C 333.333 204.253,333.375 204.626,334.694 204.626 C 336.042 204.626,336.054 204.493,336.054 189.920 L 336.054 176.302 335.442 175.690 C 334.820 175.067,334.375 174.946,320.272 171.540 C 317.503 170.871,314.075 170.031,312.653 169.673 C 311.231 169.315,309.517 168.944,308.844 168.849 C 308.170 168.754,306.272 168.385,304.626 168.029 C 302.980 167.673,300.653 167.192,299.456 166.961 C 293.999 165.907,286.878 164.472,283.578 163.761 C 282.178 163.460,279.545 162.989,277.727 162.714 C 275.909 162.439,273.259 162.018,271.837 161.778 C 270.415 161.538,267.844 161.104,266.122 160.815 C 262.449 160.196,254.723 159.309,249.524 158.907 C 247.503 158.751,245.667 158.571,245.442 158.508 C 244.449 158.226,237.871 157.805,230.469 157.550 C 226.050 157.398,219.744 157.085,216.455 156.855 C 206.830 156.181,194.671 156.134,185.442 156.733 M322.465 158.485 C 320.618 160.709,322.835 164.588,325.789 164.302 C 327.950 164.093,327.390 159.579,325.108 158.823 C 324.319 158.562,323.481 158.283,323.246 158.203 C 323.011 158.123,322.660 158.250,322.465 158.485 M75.510 158.638 C 75.211 158.767,74.639 158.943,74.239 159.028 C 73.029 159.286,72.748 160.758,73.346 163.709 C 73.603 164.978,76.912 164.220,77.691 162.714 C 79.031 160.122,77.727 157.684,75.510 158.638 M330.316 161.133 C 329.782 162.131,330.153 165.449,330.864 166.024 C 332.579 167.413,334.854 166.970,335.098 165.199 C 335.491 162.344,331.489 158.942,330.316 161.133 M65.959 161.741 C 64.372 163.328,64.607 166.803,66.301 166.803 C 67.923 166.803,68.844 165.378,68.844 162.871 C 68.844 160.587,67.600 160.101,65.959 161.741 M58.768 164.240 C 58.071 166.352,59.032 169.384,60.069 168.347 C 60.629 167.786,60.877 164.686,60.428 163.846 C 59.935 162.926,59.139 163.115,58.768 164.240 M338.497 163.963 C 337.857 165.647,338.347 168.435,339.284 168.435 C 339.963 168.435,340.136 167.930,340.136 165.946 C 340.136 163.497,339.135 162.286,338.497 163.963 M344.763 174.692 C 344.170 175.800,344.530 206.368,345.144 207.046 C 345.429 207.361,345.772 207.619,345.906 207.619 C 346.040 207.619,347.130 208.006,348.328 208.480 C 351.810 209.856,351.565 208.871,351.565 221.481 C 351.565 233.809,351.457 233.225,353.773 233.459 C 354.965 233.579,355.288 233.727,355.584 234.286 C 356.054 235.176,355.914 239.758,355.398 240.380 C 355.068 240.777,350.807 240.817,307.790 240.819 C 281.805 240.820,259.901 240.898,259.116 240.993 C 256.337 241.326,257.573 242.434,261.645 243.260 C 263.135 243.562,264.955 243.993,265.690 244.217 C 266.424 244.442,267.343 244.631,267.730 244.638 C 268.118 244.644,268.925 244.833,269.524 245.056 C 270.122 245.280,271.898 245.753,273.469 246.107 C 275.041 246.462,277.122 246.955,278.095 247.203 C 281.230 248.003,291.404 250.382,293.741 250.861 C 294.490 251.015,296.449 251.320,298.095 251.540 C 306.031 252.600,309.806 253.128,312.969 253.621 C 314.864 253.917,317.948 254.275,319.822 254.419 C 321.697 254.562,325.228 254.941,327.670 255.262 C 334.493 256.158,346.835 255.813,357.687 254.421 C 370.148 252.824,369.153 253.041,373.192 251.035 C 382.460 246.433,388.374 241.029,389.523 236.114 C 389.741 235.183,390.151 233.748,390.436 232.925 C 391.824 228.912,391.789 223.959,390.352 220.816 C 386.489 212.372,384.573 208.972,382.149 206.259 C 381.147 205.136,378.416 202.076,376.082 199.457 C 369.735 192.340,369.132 191.733,365.442 188.756 C 363.571 187.246,361.122 185.263,360.000 184.349 C 358.878 183.435,356.796 181.891,355.374 180.918 C 348.585 176.270,346.720 174.950,346.401 174.566 C 345.919 173.985,345.108 174.047,344.763 174.692 M53.330 177.827 C 52.977 178.203,51.333 179.423,49.677 180.538 C 48.021 181.654,45.616 183.278,44.332 184.149 C 32.027 192.488,17.610 207.103,11.341 217.592 C 10.790 218.513,10.340 219.351,10.340 219.455 C 10.340 219.559,10.100 219.982,9.806 220.394 C 0.460 233.519,5.897 249.433,22.211 256.702 C 23.427 257.244,24.529 257.691,24.660 257.696 C 24.791 257.701,25.388 257.942,25.986 258.231 C 26.585 258.520,27.230 258.761,27.420 258.766 C 27.610 258.771,28.651 259.087,29.733 259.468 C 34.254 261.059,58.932 262.004,65.714 260.846 C 70.743 259.988,73.443 259.547,77.423 258.935 C 81.456 258.315,82.945 258.025,88.844 256.709 C 92.595 255.872,96.523 255.058,99.864 254.426 C 101.286 254.156,102.755 253.810,103.129 253.657 C 103.503 253.503,106.014 252.743,108.707 251.969 C 119.139 248.969,123.963 247.501,125.714 246.795 C 126.909 246.314,127.962 245.947,131.293 244.850 C 132.190 244.555,133.537 244.086,134.286 243.809 C 135.034 243.533,136.019 243.231,136.474 243.140 C 138.452 242.745,139.736 241.336,138.435 240.988 C 138.099 240.898,116.930 240.822,91.394 240.820 C 48.567 240.817,44.936 240.781,44.591 240.367 C 44.351 240.078,44.184 239.005,44.123 237.366 C 44.012 234.359,44.346 233.557,45.771 233.419 C 47.300 233.271,47.325 233.083,47.341 221.377 C 47.356 209.803,47.370 209.697,48.915 209.380 C 49.325 209.295,50.272 208.975,51.020 208.668 C 51.769 208.361,52.833 207.986,53.385 207.835 C 55.485 207.262,55.365 208.164,55.451 192.352 C 55.539 176.301,55.435 175.586,53.330 177.827 M190.476 199.189 C 186.361 199.316,176.259 199.549,168.027 199.707 C 159.796 199.865,151.408 200.117,149.388 200.266 C 147.367 200.416,142.408 200.722,138.367 200.946 C 134.327 201.171,129.367 201.592,127.347 201.882 C 125.327 202.172,122.073 202.537,120.116 202.693 C 118.160 202.849,115.405 203.161,113.994 203.386 C 112.583 203.611,109.959 203.927,108.163 204.087 C 103.426 204.509,96.615 205.539,91.156 206.659 C 88.537 207.197,85.354 207.819,84.082 208.042 C 82.810 208.264,81.585 208.514,81.361 208.597 C 80.997 208.731,76.196 209.737,71.701 210.620 C 70.074 210.940,65.975 212.105,63.129 213.058 C 62.306 213.333,60.575 213.875,59.283 214.261 C 57.991 214.648,56.644 215.199,56.290 215.485 L 55.646 216.006 55.603 224.126 C 55.568 230.761,55.631 232.357,55.949 232.857 L 56.339 233.469 122.150 233.469 C 176.278 233.469,188.013 233.406,188.258 233.111 C 188.462 232.865,188.580 228.667,188.632 219.787 C 188.699 208.338,188.758 206.771,189.142 206.387 C 189.597 205.933,208.229 205.715,209.365 206.151 C 210.260 206.495,210.340 207.645,210.340 220.138 L 210.340 232.622 210.945 233.046 C 211.488 233.426,218.260 233.469,277.605 233.469 L 343.661 233.469 344.052 232.857 C 344.371 232.358,344.439 230.762,344.421 224.228 C 344.396 215.064,344.496 215.444,341.888 214.619 C 341.149 214.385,339.075 213.740,337.279 213.185 C 335.483 212.631,333.136 211.886,332.063 211.531 C 330.990 211.175,329.888 210.887,329.614 210.889 C 329.340 210.892,327.707 210.576,325.986 210.186 C 319.828 208.792,318.199 208.446,315.918 208.053 C 314.646 207.833,312.687 207.473,311.565 207.252 C 304.750 205.913,297.300 204.727,293.333 204.350 C 291.612 204.186,287.939 203.761,285.170 203.405 C 282.401 203.049,279.095 202.684,277.823 202.592 C 276.551 202.501,273.827 202.187,271.770 201.894 C 269.713 201.602,264.815 201.175,260.886 200.946 C 256.956 200.717,252.088 200.414,250.068 200.274 C 246.145 200.000,241.225 199.866,219.728 199.447 C 212.245 199.302,204.286 199.132,202.041 199.070 C 199.796 199.009,194.592 199.062,190.476 199.189 M193.566 210.656 C 192.371 211.977,193.712 213.240,195.389 212.373 C 197.416 211.325,199.050 212.477,198.856 214.817 C 198.646 217.346,197.300 218.061,194.977 216.876 C 193.425 216.085,192.438 217.459,193.172 219.391 C 193.513 220.285,193.828 220.313,195.215 219.569 C 197.261 218.473,198.912 219.428,198.912 221.707 C 198.912 224.454,197.372 225.458,195.135 224.171 C 193.501 223.230,192.435 224.526,193.196 226.528 C 193.503 227.335,193.524 227.336,195.983 226.645 C 197.979 226.085,198.777 226.790,198.772 229.108 C 198.766 231.710,197.341 232.531,195.006 231.279 C 193.786 230.625,193.197 230.896,193.197 232.109 C 193.197 233.466,193.506 233.528,200.061 233.486 C 208.000 233.436,207.129 234.654,207.103 223.641 C 207.091 218.795,207.080 214.027,207.078 213.045 C 207.073 210.158,207.364 210.277,200.163 210.238 C 194.713 210.208,193.926 210.258,193.566 210.656 M165.480 211.405 L 166.122 211.925 166.122 218.910 C 166.122 227.246,166.397 226.667,162.449 226.667 C 158.528 226.667,158.792 227.183,158.693 219.296 C 158.609 212.493,158.751 211.315,159.687 211.067 C 161.125 210.685,164.861 210.903,165.480 211.405 M176.991 211.489 C 177.347 211.997,177.415 213.169,177.415 218.776 C 177.415 227.121,177.618 226.667,173.892 226.667 C 169.757 226.667,169.839 226.968,170.059 212.585 C 170.085 210.845,175.897 209.927,176.991 211.489 M228.337 211.405 L 228.980 211.925 228.980 218.776 L 228.980 225.626 228.308 226.170 C 227.345 226.950,222.482 226.823,221.882 226.002 C 221.399 225.340,221.313 212.824,221.786 211.940 C 222.410 210.775,227.087 210.393,228.337 211.405 M239.270 211.197 C 240.246 211.711,240.264 211.848,240.268 218.844 C 240.273 227.102,240.477 226.667,236.599 226.667 C 232.719 226.667,232.925 227.110,232.925 218.795 L 232.925 212.012 233.642 211.448 C 234.468 210.799,238.196 210.632,239.270 211.197 M204.479 212.826 C 205.019 213.468,205.160 213.872,205.048 214.459 C 204.965 214.887,204.827 215.606,204.740 216.057 C 204.248 218.599,201.377 217.632,201.146 214.845 C 200.933 212.272,202.973 211.036,204.479 212.826 M148.894 214.603 C 149.335 215.002,149.388 215.556,149.388 219.770 C 149.388 225.942,149.711 225.578,144.218 225.578 C 138.725 225.578,139.048 225.940,139.048 219.780 C 139.048 213.793,138.759 214.185,143.265 214.069 C 147.547 213.959,148.256 214.026,148.894 214.603 M259.388 214.746 C 260.376 215.893,260.006 224.658,258.939 225.370 C 258.172 225.882,251.824 225.597,251.208 225.023 C 250.533 224.395,250.282 216.092,250.902 214.933 C 251.521 213.777,258.422 213.625,259.388 214.746 M119.184 215.647 C 119.733 216.308,119.567 224.460,118.993 225.095 C 118.413 225.735,112.806 225.813,111.957 225.193 C 110.925 224.439,110.915 216.134,111.945 215.446 C 112.563 215.034,118.820 215.208,119.184 215.647 M133.225 215.446 C 134.308 216.169,134.371 224.211,133.301 225.102 C 132.538 225.737,126.135 225.809,125.290 225.193 C 124.518 224.629,124.319 216.573,125.057 215.757 C 125.546 215.216,132.484 214.952,133.225 215.446 M274.877 215.688 C 275.663 216.401,275.624 224.240,274.830 225.034 C 274.052 225.812,267.616 225.858,266.671 225.092 C 265.721 224.323,265.492 217.102,266.382 215.986 L 266.978 215.238 270.679 215.238 C 273.740 215.238,274.465 215.316,274.877 215.688 M287.806 215.405 C 289.050 215.739,289.257 224.306,288.043 225.192 C 287.201 225.808,281.586 225.735,281.017 225.102 C 280.292 224.296,280.224 216.145,280.938 215.623 C 281.480 215.227,286.542 215.066,287.806 215.405 M299.627 216.847 C 300.420 217.826,300.391 225.323,299.592 226.122 C 298.901 226.813,294.344 226.931,293.453 226.281 C 292.814 225.814,292.486 218.217,293.060 217.146 C 293.714 215.924,298.696 215.697,299.627 216.847 M105.827 217.039 C 106.727 218.183,106.560 225.383,105.616 226.147 C 104.650 226.928,100.108 226.911,99.320 226.122 C 98.587 225.389,98.489 217.945,99.199 216.931 C 99.899 215.933,105.022 216.016,105.827 217.039 M94.325 217.838 C 95.251 218.763,95.240 225.068,94.312 226.094 C 93.668 226.805,89.998 226.937,89.100 226.281 C 88.242 225.655,88.146 218.945,88.979 217.885 C 89.836 216.796,93.253 216.765,94.325 217.838 M310.848 217.707 C 311.559 218.266,311.565 218.301,311.565 221.925 C 311.565 226.652,311.553 226.667,307.891 226.667 C 304.227 226.667,304.218 226.654,304.218 221.905 C 304.218 217.191,304.253 217.143,307.718 217.143 C 309.747 217.143,310.245 217.233,310.848 217.707 M83.971 218.804 C 84.668 219.575,84.603 225.396,83.889 226.185 C 83.339 226.793,80.636 226.857,79.848 226.280 C 79.046 225.694,79.046 219.204,79.848 218.618 C 80.708 217.989,83.341 218.108,83.971 218.804 M320.307 218.681 C 321.093 219.629,320.935 225.420,320.100 226.255 C 319.651 226.705,315.809 226.848,315.165 226.439 C 313.957 225.672,313.975 219.216,315.187 218.445 C 315.862 218.016,319.909 218.202,320.307 218.681 M67.332 219.629 L 68.071 220.210 67.981 223.411 C 67.878 227.083,67.563 227.755,65.944 227.755 C 64.786 227.755,63.954 226.945,63.918 225.782 C 63.719 219.325,64.700 217.558,67.332 219.629 M74.475 219.705 C 76.331 221.305,75.213 227.762,73.082 227.751 C 71.411 227.743,71.020 226.885,71.020 223.230 C 71.020 219.230,72.349 217.874,74.475 219.705 M204.184 219.554 C 205.916 221.468,204.331 225.923,202.374 224.641 C 200.316 223.292,200.880 219.048,203.117 219.048 C 203.452 219.048,203.932 219.276,204.184 219.554 M328.435 219.592 C 329.453 220.609,329.156 226.811,328.055 227.547 C 327.364 228.008,325.209 227.762,324.505 227.143 C 323.799 226.521,323.400 221.474,323.947 220.083 C 324.364 219.022,327.520 218.676,328.435 219.592 M334.521 219.612 C 335.568 220.435,335.628 225.910,334.604 227.101 C 333.020 228.943,331.973 227.357,331.973 223.116 C 331.973 219.249,332.732 218.204,334.521 219.612 M60.990 220.656 C 62.549 221.919,61.641 227.904,59.921 227.704 C 58.779 227.570,58.474 226.645,58.562 223.583 C 58.659 220.239,59.389 219.359,60.990 220.656 M340.832 220.522 C 342.172 221.500,341.570 227.529,340.116 227.700 C 338.782 227.857,338.367 226.953,338.367 223.892 C 338.367 220.548,339.238 219.357,340.832 220.522 M203.933 226.564 C 205.894 227.316,205.115 231.837,203.025 231.837 C 201.212 231.837,200.268 228.168,201.776 226.982 C 202.538 226.382,203.151 226.263,203.933 226.564 M399.467 237.091 C 399.151 238.610,398.313 240.129,395.324 244.594 C 392.169 249.307,387.835 252.938,383.421 254.567 C 382.886 254.764,381.408 255.374,380.136 255.924 C 378.864 256.473,377.150 257.136,376.327 257.397 C 375.503 257.658,374.463 258.059,374.014 258.289 C 373.195 258.708,369.164 259.884,364.962 260.929 C 358.438 262.551,331.694 262.868,322.993 261.427 C 320.673 261.042,317.918 260.648,316.871 260.550 C 313.603 260.244,304.209 258.784,302.055 258.247 C 300.925 257.965,299.449 257.651,298.776 257.549 C 298.102 257.448,296.327 257.082,294.830 256.737 C 292.008 256.087,289.230 255.508,285.034 254.696 C 283.687 254.436,279.585 253.478,275.918 252.569 C 272.252 251.659,266.986 250.354,264.218 249.667 C 259.017 248.378,255.555 247.438,253.197 246.676 C 252.449 246.435,250.612 245.865,249.116 245.410 C 247.619 244.956,245.476 244.302,244.354 243.958 C 243.231 243.614,241.150 242.997,239.728 242.587 C 238.306 242.177,236.592 241.641,235.918 241.397 C 234.806 240.993,230.998 240.952,194.422 240.952 L 154.150 240.952 149.796 242.935 C 147.401 244.026,144.952 245.147,144.354 245.426 C 136.540 249.076,133.441 250.393,130.612 251.267 C 129.340 251.661,124.381 253.259,119.592 254.818 C 111.395 257.487,109.345 258.120,103.673 259.728 C 102.401 260.088,100.133 260.756,98.632 261.212 C 97.131 261.668,95.754 262.041,95.572 262.041 C 95.389 262.041,94.536 262.280,93.675 262.573 C 92.813 262.865,90.211 263.478,87.891 263.935 C 85.571 264.391,81.224 265.263,78.231 265.872 C 73.040 266.928,64.710 268.079,56.463 268.880 C 43.245 270.164,22.490 266.338,16.289 261.476 C 7.384 254.494,2.862 250.054,1.579 247.033 C 1.175 246.083,0.665 244.878,0.445 244.354 C 0.085 243.498,0.042 244.858,0.022 257.755 L 0.000 272.109 200.000 272.109 L 400.000 272.109 400.000 253.878 C 400.000 243.850,399.947 235.646,399.883 235.646 C 399.819 235.646,399.632 236.296,399.467 237.091 "
              stroke="none" fill="#fafbfb" fill-rule="evenodd"></path>
    </g>
</svg>