<?xml version="1.0" encoding="UTF-8"?>
<!-- Generator: Adobe Illustrator 22.0.1, SVG Export Plug-In . SVG Version: 6.00 Build 0)  -->
<svg version="1.1" id="Layer_1" xmlns="http://www.w3.org/2000/svg" xmlns:xlink="http://www.w3.org/1999/xlink" x="0px"
     y="0px" viewBox="0 0 127.2 29.4" style="enable-background:new 0 0 127.2 29.4;" xml:space="preserve">
<style type="text/css">
	.st0{fill-rule:evenodd;clip-rule:evenodd;fill:#ED1C24;}
	.st1{fill-rule:evenodd;clip-rule:evenodd;fill:black;}
	.st2{fill:black;}
	.st3{fill:#ED1C24;}
</style>
    <path class="st0"
          d="M4.6,17.5h1c1.8,0,3.1-0.3,4-1c0.9-0.6,1.4-1.6,1.4-2.8c0-1.2-0.4-2.1-1.1-2.6c-0.8-0.6-2-0.8-3.6-0.8H4.6V17.5  z M4.6,28.9H0.2V6.6h5.3c1.7,0,2.9,0.1,3.8,0.2c0.8,0.1,1.5,0.3,2.1,0.6c1.3,0.6,2.2,1.4,2.9,2.5c0.7,1.1,1,2.3,1,3.7  c0,1.7-0.5,3.2-1.4,4.4c-0.9,1.2-2.2,2-3.9,2.3l5.6,8.7h-5.2L4.6,18.6V28.9z"/>
    <path class="st0"
          d="M28.5,18.6c-0.3-1.1-0.9-2-1.7-2.6c-0.8-0.6-1.8-0.9-3-0.9c-1,0-2,0.3-2.8,1c-0.8,0.6-1.4,1.5-1.7,2.5H28.5z   M19.2,21.8c0.1,1.2,0.6,2.2,1.4,2.9c0.8,0.7,1.9,1,3.2,1c0.9,0,1.7-0.2,2.4-0.6c0.7-0.4,1.3-0.9,1.7-1.5h4.2  c-0.7,1.8-1.8,3.3-3.2,4.3c-1.4,1-3.1,1.5-4.9,1.5c-1.3,0-2.4-0.2-3.5-0.7c-1.1-0.4-2-1.1-2.8-2c-0.8-0.8-1.4-1.8-1.9-2.9  c-0.4-1.1-0.7-2.2-0.7-3.3c0-1.2,0.2-2.3,0.6-3.3c0.4-1,1-2,1.8-2.8c0.9-0.9,1.8-1.6,2.9-2.1c1.1-0.5,2.2-0.7,3.4-0.7  c1.5,0,2.8,0.3,4.1,1c1.3,0.7,2.3,1.6,3.2,2.8c0.5,0.7,0.9,1.5,1.2,2.4c0.3,0.9,0.4,1.9,0.4,3.1c0,0.1,0,0.2,0,0.4  c0,0.2,0,0.3,0,0.4H19.2z"/>
    <path class="st0"
          d="M47.4,20.6c0-1.4-0.5-2.6-1.4-3.6c-0.9-1-2.1-1.4-3.4-1.4c-1.4,0-2.5,0.5-3.5,1.5c-1,1-1.4,2.1-1.4,3.5  c0,1.4,0.5,2.6,1.4,3.5c1,1,2.2,1.4,3.6,1.4c1.3,0,2.4-0.5,3.3-1.4C47,23.1,47.4,22,47.4,20.6z M47.6,13.4V6.6h3.9v22.3h-3.9v-1.4  c-0.8,0.6-1.6,1.1-2.5,1.4c-0.9,0.3-1.8,0.4-2.8,0.4c-1.1,0-2.1-0.2-3-0.5c-0.9-0.3-1.8-0.8-2.5-1.5c-1-0.9-1.8-1.9-2.3-3.1  c-0.6-1.2-0.8-2.5-0.8-3.8c0-1.3,0.2-2.4,0.8-3.6c0.5-1.1,1.2-2.1,2.1-3c0.8-0.7,1.6-1.3,2.6-1.7c1-0.4,2.1-0.6,3.2-0.6  c1.1,0,2.1,0.1,2.9,0.4C46,12.4,46.8,12.8,47.6,13.4z"/>
    <g>
	<path class="st1"
          d="M56.8,20.6c0,1.4,0.5,2.5,1.4,3.5c0.9,0.9,2,1.4,3.3,1.4c1.5,0,2.7-0.5,3.6-1.4c1-0.9,1.4-2.1,1.4-3.5   c0-1.4-0.5-2.5-1.4-3.5c-1-1-2.1-1.5-3.5-1.5c-1.4,0-2.5,0.5-3.5,1.4C57.2,18,56.8,19.2,56.8,20.6z M56.6,13.4   c0.7-0.6,1.5-1,2.4-1.3c0.8-0.3,1.8-0.4,2.9-0.4c1.1,0,2.2,0.2,3.2,0.6c1,0.4,1.9,0.9,2.6,1.7c0.9,0.8,1.6,1.8,2.1,3   c0.5,1.1,0.7,2.3,0.7,3.6c0,1.3-0.3,2.6-0.8,3.8c-0.5,1.2-1.3,2.2-2.3,3.1c-0.7,0.7-1.6,1.1-2.5,1.5c-0.9,0.3-1.9,0.5-3,0.5   c-1,0-1.9-0.1-2.8-0.4c-0.9-0.3-1.7-0.8-2.5-1.4v1.4h-3.9V6.6h3.9V13.4z"/>
        <path class="st1"
              d="M84.6,18.6c-0.3-1.1-0.9-2-1.7-2.6c-0.8-0.6-1.8-0.9-3-0.9c-1,0-2,0.3-2.8,1c-0.8,0.6-1.4,1.5-1.7,2.5H84.6z    M75.3,21.8c0.1,1.2,0.6,2.2,1.4,2.9c0.8,0.7,1.9,1,3.2,1c0.9,0,1.7-0.2,2.4-0.6c0.7-0.4,1.3-0.9,1.7-1.5h4.2   c-0.7,1.8-1.8,3.3-3.2,4.3c-1.4,1-3.1,1.5-4.9,1.5c-1.3,0-2.4-0.2-3.5-0.7c-1.1-0.4-2-1.1-2.8-2c-0.8-0.8-1.4-1.8-1.9-2.9   c-0.4-1.1-0.7-2.2-0.7-3.3c0-1.2,0.2-2.3,0.6-3.3c0.4-1,1-2,1.8-2.8c0.9-0.9,1.8-1.6,2.9-2.1c1.1-0.5,2.2-0.7,3.4-0.7   c1.5,0,2.8,0.3,4.1,1c1.3,0.7,2.3,1.6,3.2,2.8c0.5,0.7,0.9,1.5,1.2,2.4c0.3,0.9,0.4,1.9,0.4,3.1c0,0.1,0,0.2,0,0.4   c0,0.2,0,0.3,0,0.4H75.3z"/>
        <path class="st1"
              d="M103.2,18.6c-0.3-1.1-0.9-2-1.7-2.6c-0.8-0.6-1.8-0.9-3-0.9c-1,0-2,0.3-2.8,1c-0.8,0.6-1.4,1.5-1.7,2.5H103.2z    M93.9,21.8c0.1,1.2,0.6,2.2,1.4,2.9c0.8,0.7,1.9,1,3.2,1c0.9,0,1.7-0.2,2.4-0.6c0.7-0.4,1.3-0.9,1.7-1.5h4.2   c-0.7,1.8-1.8,3.3-3.2,4.3c-1.4,1-3.1,1.5-4.9,1.5c-1.3,0-2.4-0.2-3.5-0.7c-1.1-0.4-2-1.1-2.8-2c-0.8-0.8-1.4-1.8-1.9-2.9   c-0.4-1.1-0.7-2.2-0.7-3.3c0-1.2,0.2-2.3,0.6-3.3c0.4-1,1-2,1.8-2.8c0.9-0.9,1.8-1.6,2.9-2.1c1.1-0.5,2.2-0.7,3.4-0.7   c1.5,0,2.8,0.3,4.1,1c1.3,0.7,2.3,1.6,3.2,2.8c0.5,0.7,0.9,1.5,1.2,2.4c0.3,0.9,0.4,1.9,0.4,3.1c0,0.1,0,0.2,0,0.4   c0,0.2,0,0.3,0,0.4H93.9z"/>
</g>
    <path class="st2"
          d="M118.7,2.6c-5.3-4.1-10.8-1.6-5.9,2.3c0.4,0.3,0.8,0.7-0.1,0.6c-8.4-0.6-4.8,6.4,1.8,5.1  c0.9-0.2,0.8-0.7-0.1-0.6c-5.4,0.4-8.1-4.2,0.1-3.4c1.2,0.1,1.1-0.5,0.2-1.3c-4.5-3.8-0.2-4.4,3.5-1.6c1.6,1.3,3.5,3.1,4.3,6.6  c0.3,1.2-0.3,1.4-0.8,1c-3-2.3-10.4,0.4-11.8,7.3c-1,4.7,2.1,5.7,5.1,4.5c4.3-1.8,8.3-7.1,8.6-11.2C123.8,8.7,122.3,5.3,118.7,2.6z   M120.3,16.4c-0.7-1.1-1.5-2-2.6-2.4c-0.9-0.3-1.6,0.4-0.7,0.9c0.9,0.6,1.9,1.2,2.2,2.6c0.3,1.8-1.3,3-2.1,1.4  c-0.6-1.1-1.1-1.6-1.8-2.2c-1-0.8-1.6,0.3-1,0.8c0.8,0.7,1.3,1.5,1.4,2.4c0.2,1.9-2,2.9-3.2,1.8c-1.3-1.3-1-3.2-0.2-4.9  c0.2-0.5,0.5-1,0.8-1.4c0.3-0.4,0.5-0.8,0.8-1.1c1.8-2.2,5-3.7,7.3-1.6C123.1,14.3,120.9,17.5,120.3,16.4z"/>
    <path class="st3"
          d="M113.9,14.2c-0.2,0.3-0.5,0.7-0.8,1.1c-0.3,0.5-0.6,0.9-0.8,1.4c-0.8,1.7-1.1,3.7,0.2,4.9  c1.1,1.1,3.4,0.1,3.2-1.8c-0.1-0.9-0.6-1.7-1.4-2.4c-0.6-0.5,0-1.6,1-0.8c0.6,0.5,1.2,1,1.8,2.2c0.8,1.6,2.5,0.5,2.1-1.4  c-0.3-1.4-1.3-2-2.2-2.6c-0.8-0.5-0.2-1.2,0.7-0.9c1.2,0.4,2,1.3,2.6,2.4c0.6,1.1,2.8-2.1,1-3.8C118.9,10.4,115.7,12,113.9,14.2z"/>
    <path class="st2"
          d="M127.2,8.6c-0.7-2.8-3.3-2.4-2.9,0.3c0.2,1.5,0.3,2.7,0.3,4.3C124.6,15.4,127.8,11.2,127.2,8.6z M126.2,10.5  c-0.4,0.7-1-0.8-1.1-1.3c-0.1-0.5-0.1-1.5,0.4-1.5C126.5,7.7,126.7,9.7,126.2,10.5z"/>
    <path class="st3" d="M125.6,7.7c-0.5,0-0.5,1-0.4,1.5c0.1,0.6,0.7,2,1.1,1.3C126.7,9.7,126.5,7.7,125.6,7.7z"/>
</svg>