<svg id="svg" xmlns="http://www.w3.org/2000/svg" xmlns:xlink="http://www.w3.org/1999/xlink" width="400" height="400"
     viewBox="0, 0, 400,400">
    <g id="svgg">
        <path id="path0"
              d="M196.975 21.741 C 141.471 23.293,100.586 44.222,62.481 90.588 C 44.912 111.966,31.694 140.689,25.720 170.468 C 22.366 187.189,24.719 190.481,31.265 178.226 C 36.578 168.280,38.264 163.583,39.147 156.273 C 40.738 143.096,42.113 140.388,49.873 135.154 C 54.607 131.962,56.321 130.026,60.377 123.293 C 63.415 118.252,64.980 116.639,66.833 116.639 C 69.756 116.639,70.231 118.540,68.261 122.353 C 67.736 123.370,66.620 125.515,65.781 127.120 C 62.549 133.305,63.958 137.960,69.282 138.690 C 72.448 139.124,74.000 137.282,75.488 131.326 C 76.945 125.492,77.977 124.510,83.169 124.019 C 90.388 123.336,92.287 120.902,91.427 113.435 C 89.879 99.993,94.449 97.256,104.965 105.327 C 114.683 112.786,123.843 114.435,142.353 112.056 C 160.759 109.691,177.574 111.438,188.277 116.828 C 190.856 118.126,195.902 121.345,195.360 121.345 C 193.294 121.345,195.934 125.699,198.908 127.198 C 200.003 127.750,200.652 131.092,199.664 131.092 C 199.181 131.092,199.250 133.006,199.811 135.159 C 200.171 136.541,200.209 137.389,199.962 138.488 C 199.566 140.253,200.321 141.611,201.798 141.787 C 202.410 141.860,202.689 142.092,202.689 142.528 C 202.689 143.133,203.838 145.138,204.804 146.218 C 205.052 146.496,205.431 147.337,205.647 148.087 C 206.517 151.113,209.699 152.155,212.869 150.451 C 214.492 149.578,214.599 149.604,214.858 150.935 C 214.913 151.217,214.041 152.352,212.921 153.456 C 207.761 158.540,205.730 162.335,203.376 171.291 C 201.469 178.548,201.094 179.597,198.556 184.767 C 197.540 186.834,196.652 188.699,196.582 188.911 C 196.472 189.238,190.195 186.706,182.571 183.259 L 181.108 182.598 184.756 178.661 C 188.846 174.245,189.024 174.002,188.760 173.186 C 188.594 172.675,171.017 160.148,168.973 159.085 C 168.079 158.620,165.109 158.971,162.166 159.888 L 160.466 160.418 154.980 157.334 C 146.251 152.426,146.292 152.382,148.016 164.606 C 149.631 176.056,149.230 175.268,155.214 178.778 L 160.008 181.591 158.572 182.502 C 156.548 183.785,152.922 188.370,139.281 206.891 C 128.334 221.755,128.118 222.101,129.137 223.120 C 129.632 223.615,130.383 223.130,122.521 227.393 C 110.110 234.123,109.748 234.405,109.748 237.336 C 109.748 238.246,109.697 238.840,109.636 238.655 C 109.246 237.486,89.787 244.515,76.115 250.763 C 64.389 256.122,59.832 258.367,59.832 258.784 C 59.832 259.492,61.248 262.183,61.612 262.169 C 61.835 262.160,65.420 260.519,69.579 258.522 L 77.141 254.891 78.771 257.950 C 87.452 274.235,104.584 290.230,125.546 301.619 C 127.950 302.925,129.974 304.035,130.044 304.086 C 130.115 304.136,129.063 305.879,127.707 307.958 C 124.011 313.627,117.311 324.784,117.311 325.270 C 117.311 325.627,118.928 326.723,119.455 326.723 C 119.544 326.723,120.712 324.870,122.051 322.605 C 125.222 317.243,132.386 305.953,132.767 305.718 C 132.930 305.617,133.944 305.928,135.019 306.408 C 147.069 311.792,160.345 315.672,174.118 317.835 C 180.711 318.871,180.168 318.930,180.168 317.182 L 180.168 315.708 177.395 315.317 C 163.380 313.345,148.212 309.102,137.525 304.164 L 134.709 302.863 135.299 301.936 C 139.545 295.266,150.047 281.696,159.236 271.007 L 163.355 266.216 162.817 264.873 C 162.522 264.134,162.167 263.529,162.029 263.529 C 160.991 263.529,144.250 284.237,136.350 295.294 C 133.972 298.622,131.926 301.384,131.802 301.432 C 131.351 301.607,121.059 295.677,116.471 292.600 C 102.990 283.559,92.652 273.680,85.445 262.954 C 83.312 259.779,79.857 253.807,80.050 253.629 C 80.732 253.002,97.021 246.607,104.538 244.016 C 108.805 242.545,111.128 241.579,111.194 241.249 C 111.285 240.798,111.411 240.799,112.328 241.256 C 113.792 241.987,123.256 241.349,136.031 239.660 C 142.646 238.785,143.866 237.947,143.866 234.277 C 143.866 233.478,144.002 232.986,144.190 233.102 C 144.738 233.441,150.726 232.190,151.176 231.642 C 151.533 231.210,151.597 231.286,151.597 232.141 C 151.597 235.876,169.083 279.935,171.047 281.149 C 171.217 281.253,170.480 283.601,169.409 286.365 C 164.334 299.472,163.923 301.701,166.193 303.781 C 167.221 304.724,167.628 304.874,169.148 304.874 L 170.911 304.874 174.303 301.429 C 177.668 298.011,186.015 288.173,189.008 284.096 C 191.707 280.418,191.440 279.225,187.215 276.100 C 186.407 275.502,185.895 274.848,185.890 274.406 C 185.871 272.685,181.533 255.265,180.004 250.769 C 179.540 249.405,179.236 248.215,179.328 248.123 C 179.420 248.030,179.496 248.132,179.496 248.347 C 179.496 249.258,180.506 248.466,185.741 243.448 C 191.107 238.305,192.111 237.034,190.504 237.420 C 190.088 237.519,189.176 237.705,188.476 237.832 C 187.435 238.020,186.415 238.832,182.853 242.308 L 178.501 246.555 177.332 243.375 C 176.690 241.626,176.220 240.138,176.289 240.069 C 176.537 239.822,202.528 234.638,202.857 234.770 C 203.042 234.844,202.929 234.917,202.605 234.931 C 202.054 234.956,202.017 235.914,202.017 250.125 L 202.017 265.292 196.820 265.048 C 193.961 264.914,189.991 264.617,187.996 264.387 C 183.706 263.893,184.114 263.750,184.640 265.570 L 185.070 267.059 188.922 267.518 C 223.103 271.596,260.886 259.715,275.987 240.141 C 277.715 237.901,277.024 237.876,286.263 240.517 C 301.445 244.857,317.063 250.451,333.349 257.381 C 341.519 260.858,341.211 260.813,342.042 258.636 C 342.755 256.771,342.962 256.963,337.815 254.706 C 315.839 245.066,274.826 231.597,267.449 231.597 C 266.549 231.597,266.228 230.542,264.366 221.464 C 259.231 196.437,261.153 167.556,269.051 151.058 C 277.925 132.519,297.948 115.122,314.992 111.141 L 315.867 110.936 316.072 114.712 C 316.621 124.794,321.364 130.084,329.856 130.084 C 333.842 130.084,336.461 133.477,336.471 138.655 C 336.482 144.956,339.736 147.454,349.398 148.580 C 357.358 149.507,359.859 152.186,362.503 162.619 C 365.330 173.770,368.388 179.272,372.941 181.395 C 378.394 183.937,378.618 181.574,374.610 163.718 C 367.849 133.600,353.771 106.488,332.453 82.528 C 303.392 49.866,273.161 32.209,232.605 24.210 C 221.505 22.020,211.584 21.333,196.975 21.741 M216.303 26.244 C 228.150 27.076,230.400 27.598,230.718 29.587 C 230.842 30.362,231.233 31.820,231.587 32.826 C 232.176 34.502,232.182 34.642,231.661 34.498 C 228.200 33.548,225.636 34.150,219.160 37.434 C 207.131 43.533,201.840 42.686,195.504 33.644 C 193.352 30.573,191.232 28.654,188.320 27.141 L 186.219 26.050 188.824 25.841 C 192.287 25.563,210.381 25.828,216.303 26.244 M182.038 27.589 C 187.365 28.984,190.709 31.426,194.252 36.508 C 200.376 45.293,207.954 46.258,220.373 39.834 C 228.270 35.749,231.245 35.733,236.040 39.749 C 242.559 45.208,249.840 45.800,262.857 41.929 C 270.425 39.678,274.959 40.715,277.152 45.199 C 279.100 49.179,278.612 52.873,274.890 62.324 L 273.181 66.665 272.506 65.685 C 269.478 61.296,263.935 57.433,260.334 57.204 C 256.280 56.945,254.425 57.738,247.952 62.493 C 235.727 71.474,222.864 69.494,211.662 56.907 C 202.933 47.100,195.314 45.029,188.848 50.706 L 187.643 51.764 184.998 49.122 C 179.112 43.245,174.866 43.155,170.833 48.823 C 167.978 52.834,167.856 52.898,162.585 53.128 C 157.162 53.365,156.526 53.644,151.860 57.832 C 146.999 62.194,145.950 62.139,141.888 57.308 C 138.928 53.788,137.674 53.064,134.745 53.185 C 132.555 53.276,132.521 53.264,132.805 52.519 C 134.774 47.358,138.789 45.319,145.546 46.050 C 152.652 46.819,156.326 45.011,158.516 39.664 C 162.055 31.027,165.416 28.495,174.958 27.276 C 178.581 26.814,179.174 26.840,182.038 27.589 M241.345 30.134 C 251.616 32.506,268.639 38.650,264.958 38.656 C 264.634 38.657,262.702 39.170,260.665 39.796 C 246.084 44.277,235.309 40.316,233.419 29.781 L 233.184 28.471 234.659 28.700 C 235.471 28.827,238.479 29.472,241.345 30.134 M159.832 31.304 C 158.611 32.656,157.679 34.449,156.482 37.752 C 154.713 42.628,152.880 43.564,145.378 43.420 C 135.970 43.240,132.997 44.959,130.065 52.274 C 127.349 59.052,124.457 61.565,117.364 63.316 C 108.080 65.607,105.775 69.082,105.736 80.840 C 105.712 88.369,105.278 90.420,103.712 90.420 C 103.158 90.420,102.798 90.778,102.346 91.780 C 101.140 94.455,98.408 96.856,96.852 96.607 C 92.450 95.903,88.349 99.382,87.528 104.515 C 86.987 107.895,81.093 107.306,79.054 103.668 C 76.536 99.177,73.684 97.337,69.244 97.340 C 62.120 97.345,58.563 101.550,56.475 112.437 C 55.101 119.601,51.557 124.289,46.172 126.066 C 44.429 126.641,44.454 126.411,46.556 122.474 C 59.007 99.159,66.483 91.673,80.603 88.380 C 87.308 86.817,90.023 83.712,90.575 76.975 C 91.114 70.399,91.890 69.658,98.655 69.256 C 107.551 68.728,110.572 63.400,107.066 54.418 C 106.665 53.388,121.966 44.273,130.580 40.411 C 140.798 35.831,156.910 30.246,160.795 29.939 C 160.956 29.926,160.522 30.541,159.832 31.304 M284.394 47.327 C 288.444 49.737,297.724 55.845,300.000 57.600 C 311.083 66.144,326.061 80.124,328.169 83.891 C 329.137 85.621,325.072 88.468,321.345 88.672 C 317.175 88.900,314.913 86.772,312.982 80.807 C 309.037 68.620,299.492 67.699,289.975 78.587 L 288.712 80.032 286.196 79.682 C 281.993 79.097,279.642 77.489,276.933 73.345 C 274.664 69.875,274.665 70.208,276.916 64.452 C 280.788 54.549,281.606 50.607,280.577 46.807 C 279.983 44.615,279.793 44.589,284.394 47.327 M179.260 47.949 C 180.837 48.760,182.877 50.507,184.504 52.436 L 185.935 54.133 185.058 56.430 C 183.712 59.951,183.250 60.250,178.734 60.528 C 172.788 60.893,168.894 63.313,167.903 67.260 C 167.721 67.984,167.546 68.057,166.249 67.954 C 164.129 67.786,162.832 69.065,160.692 73.436 C 157.528 79.899,154.456 81.115,148.661 78.196 C 140.593 74.133,136.479 75.215,134.452 81.931 C 132.849 87.242,131.607 87.974,123.488 88.385 C 117.414 88.693,116.237 88.967,113.351 90.743 C 109.705 92.986,106.818 92.276,107.765 89.370 C 108.241 87.907,108.360 86.250,108.390 80.672 C 108.447 70.243,110.090 67.827,118.542 65.752 C 124.134 64.379,125.912 63.248,130.608 58.073 C 133.860 54.491,136.381 54.708,139.690 58.856 C 144.903 65.390,147.707 65.424,154.608 59.035 C 157.885 56.001,158.611 55.717,163.421 55.593 C 168.914 55.451,169.940 54.928,172.701 50.862 C 175.046 47.409,176.746 46.654,179.260 47.949 M201.345 52.890 C 202.746 53.580,204.575 55.210,208.908 59.627 C 213.076 63.877,215.410 65.969,217.534 67.360 C 220.834 69.521,220.854 69.556,221.634 74.491 C 222.159 77.810,223.407 94.018,223.157 94.264 C 223.085 94.335,221.746 92.872,220.183 91.013 C 211.564 80.763,205.975 78.331,188.739 77.331 C 175.647 76.571,168.762 72.353,172.405 67.325 C 174.145 64.923,175.343 64.435,180.040 64.212 C 185.131 63.971,186.008 63.448,187.959 59.485 C 188.639 58.105,189.357 56.792,189.555 56.569 C 189.754 56.346,189.916 55.875,189.916 55.522 C 189.916 52.336,196.934 50.720,201.345 52.890 M105.242 57.395 C 107.080 63.833,104.883 66.352,96.985 66.865 C 90.296 67.298,88.671 68.927,88.067 75.799 C 87.471 82.582,86.101 84.122,78.937 86.060 C 76.826 86.631,73.448 87.896,71.366 88.894 L 67.606 90.696 70.577 87.109 C 75.516 81.145,81.188 75.279,87.563 69.541 C 92.789 64.838,95.547 62.529,102.689 56.884 C 104.474 55.473,104.707 55.520,105.242 57.395 M261.534 61.554 C 263.467 62.385,263.509 62.497,262.238 63.437 C 253.387 69.981,245.118 84.298,245.032 93.229 C 245.009 95.577,244.411 93.014,243.396 86.218 C 242.467 79.999,241.343 71.157,241.468 71.056 C 241.492 71.037,242.723 70.394,244.202 69.628 C 245.681 68.861,248.782 66.851,251.092 65.159 C 257.298 60.617,258.440 60.223,261.534 61.554 M267.974 66.496 C 268.613 67.203,270.332 69.813,271.793 72.294 C 276.381 80.085,279.961 82.990,285.921 83.759 C 290.566 84.359,291.213 85.295,292.273 92.941 C 293.283 100.230,295.899 104.538,299.314 104.538 C 300.099 104.538,299.933 105.134,299.076 105.396 C 295.303 106.549,280.087 116.103,271.622 122.633 C 263.767 128.694,264.395 128.353,261.681 128.031 C 252.406 126.931,248.214 119.648,248.253 104.706 C 248.298 87.632,252.487 77.116,262.857 68.042 C 266.572 64.792,266.464 64.824,267.974 66.496 M227.861 71.591 C 228.857 71.779,230.294 71.933,231.054 71.933 L 232.437 71.934 233.567 79.412 C 239.220 116.830,242.518 127.300,250.336 132.650 C 256.681 136.992,260.882 135.577,276.872 123.706 C 291.226 113.051,299.018 108.712,307.395 106.710 C 314.957 104.903,318.282 105.910,311.765 108.033 C 305.199 110.173,296.880 114.219,287.376 119.897 C 266.218 132.537,252.569 153.926,247.735 182.017 C 246.903 186.855,246.728 187.681,246.568 187.519 C 246.126 187.069,245.279 181.167,245.006 176.639 C 244.286 164.651,243.208 162.131,236.218 156.078 C 233.815 153.997,232.941 153.031,232.941 152.454 C 232.941 149.658,230.128 144.634,228.223 144.030 C 227.281 143.731,227.386 142.638,228.381 142.389 C 229.430 142.125,229.714 141.200,229.237 139.595 C 228.897 138.450,228.998 137.878,230.227 134.017 C 231.187 131.002,231.597 129.123,231.597 127.735 L 231.597 125.755 232.857 125.651 C 235.952 125.394,233.381 119.395,229.400 117.581 C 228.889 117.348,228.555 116.820,228.405 116.010 C 228.281 115.339,227.877 114.298,227.507 113.697 C 226.931 112.760,226.911 112.605,227.368 112.605 C 228.008 112.605,228.099 107.240,227.566 100.818 C 227.389 98.680,227.011 92.630,226.726 87.373 C 226.389 81.165,225.974 76.637,225.542 74.454 C 225.176 72.605,224.876 71.044,224.875 70.986 C 224.874 70.927,225.139 70.962,225.462 71.064 C 225.786 71.166,226.865 71.403,227.861 71.591 M238.098 76.555 C 240.553 97.112,245.071 118.281,248.161 123.697 C 249.161 125.451,252.498 129.088,253.950 130.005 C 254.319 130.239,254.129 130.196,253.527 129.911 C 250.569 128.509,247.187 123.608,245.242 117.907 C 242.856 110.911,236.020 74.030,236.755 72.115 C 237.231 70.874,237.543 71.904,238.098 76.555 M169.179 74.444 C 173.354 79.053,178.178 80.655,189.916 81.332 C 199.877 81.907,201.943 82.302,206.218 84.453 C 211.372 87.045,217.439 92.893,222.244 99.898 L 223.697 102.017 223.866 106.471 L 224.034 110.926 223.176 110.925 C 222.186 110.924,221.513 111.482,221.513 112.303 C 221.513 112.833,221.394 112.838,219.916 112.368 C 215.604 110.998,210.117 111.965,204.874 115.018 C 202.410 116.453,201.537 116.788,200.168 116.828 C 199.244 116.854,198.309 116.898,198.090 116.925 C 197.406 117.010,197.281 118.151,197.795 119.608 L 198.290 121.008 197.044 120.958 C 195.977 120.915,195.936 120.887,196.755 120.765 C 197.554 120.645,197.678 120.501,197.503 119.890 C 197.389 119.489,197.211 118.782,197.109 118.319 C 196.917 117.451,195.609 116.378,192.349 114.415 C 191.310 113.789,190.536 113.277,190.628 113.277 C 191.063 113.277,195.175 115.020,196.260 115.664 C 198.393 116.930,203.025 116.715,203.025 115.350 C 203.025 114.641,201.206 113.538,196.414 111.340 C 185.429 106.302,172.120 104.591,158.151 106.422 C 156.118 106.689,152.714 107.056,150.588 107.238 C 148.462 107.420,145.739 107.724,144.538 107.914 C 138.795 108.823,130.805 102.696,127.259 94.664 C 126.143 92.138,126.148 92.102,127.647 92.096 C 132.969 92.073,136.155 89.600,137.814 84.202 C 139.431 78.940,140.249 78.689,146.555 81.516 C 155.714 85.622,159.994 84.210,163.838 75.814 C 165.982 71.130,166.141 71.089,169.179 74.444 M305.968 74.678 C 307.673 75.531,309.292 78.090,310.610 82.017 C 312.402 87.358,314.311 89.793,317.578 90.906 C 321.728 92.320,327.468 90.695,329.607 87.500 L 330.325 86.429 336.003 93.362 C 339.126 97.176,342.026 100.796,342.449 101.408 L 343.217 102.521 341.976 103.611 C 338.095 107.018,338.177 114.376,342.131 117.662 C 343.429 118.741,346.298 120.203,349.035 121.183 C 351.596 122.099,354.597 124.351,356.892 127.080 C 361.999 133.154,370.418 158.303,372.918 174.958 L 373.120 176.303 371.763 174.822 C 370.046 172.950,368.675 170.085,367.557 166.034 C 362.757 148.634,360.140 145.413,350.084 144.522 C 341.664 143.776,340.852 143.183,340.215 137.311 C 339.395 129.741,336.821 126.875,330.084 126.030 C 322.600 125.092,320.623 122.435,319.996 112.469 C 319.291 101.245,314.847 97.126,306.555 100.008 C 299.919 102.313,296.966 100.091,295.984 92.056 C 295.315 86.585,294.443 83.754,292.932 82.152 C 291.444 80.574,291.360 80.842,294.202 78.089 C 298.537 73.888,302.242 72.814,305.968 74.678 M122.541 93.866 C 124.197 98.921,128.404 104.654,132.843 107.902 L 134.088 108.813 131.124 109.037 C 121.050 109.798,110.977 106.163,102.718 98.786 C 102.542 98.629,102.926 97.852,103.626 96.954 C 104.294 96.096,104.888 95.252,104.946 95.077 C 105.007 94.895,105.556 94.968,106.224 95.246 C 109.203 96.485,112.979 96.229,114.859 94.660 C 116.612 93.197,118.642 92.435,121.570 92.140 C 121.786 92.119,122.223 92.895,122.541 93.866 M72.532 100.699 C 73.488 101.175,74.716 102.127,75.260 102.814 L 76.248 104.062 74.147 103.928 C 66.900 103.467,61.232 107.623,60.549 113.899 C 60.350 115.731,60.092 116.412,59.125 117.673 C 58.475 118.519,57.210 120.637,56.313 122.379 C 54.014 126.845,53.527 127.389,48.422 131.204 C 38.256 138.801,36.679 141.809,35.144 156.536 C 34.742 160.387,34.425 161.877,33.501 164.267 C 32.103 167.879,29.253 173.902,29.041 173.691 C 28.458 173.108,32.778 156.497,35.929 147.207 C 38.217 140.459,42.070 130.789,42.855 129.824 C 42.896 129.773,44.047 129.422,45.412 129.044 C 53.228 126.878,57.114 122.321,59.002 113.110 C 61.313 101.841,66.069 97.478,72.532 100.699 M346.828 107.815 C 349.146 111.273,352.592 116.980,353.794 119.352 L 354.642 121.025 352.847 120.012 C 351.859 119.455,350.221 118.714,349.207 118.365 C 341.753 115.800,339.318 110.404,343.612 105.966 C 344.924 104.611,344.527 104.382,346.828 107.815 M78.151 107.686 C 80.781 108.810,83.439 109.354,85.387 109.167 L 86.952 109.016 87.342 111.941 C 88.269 118.906,87.587 119.932,81.994 119.985 C 76.572 120.037,73.440 123.029,71.929 129.600 C 70.848 134.304,69.605 135.831,68.380 133.961 C 67.568 132.722,68.016 130.938,70.001 127.505 C 73.292 121.810,74.049 118.535,72.721 115.735 C 71.517 113.199,67.871 111.979,64.713 113.055 C 63.158 113.585,63.157 113.585,63.386 112.843 C 65.037 107.487,71.997 105.056,78.151 107.686 M220.125 116.160 C 222.382 117.179,223.713 117.216,224.217 116.274 C 224.723 115.328,224.903 115.601,225.160 117.709 C 225.366 119.396,225.456 119.533,226.773 120.168 C 227.540 120.538,228.481 121.124,228.864 121.471 L 229.559 122.102 228.523 123.071 C 227.710 123.830,227.540 124.202,227.736 124.793 C 228.441 126.919,228.296 128.746,227.122 132.518 C 226.475 134.599,225.840 136.807,225.713 137.423 C 225.503 138.434,225.393 138.522,224.589 138.323 C 222.799 137.879,221.001 136.644,221.135 135.950 C 222.137 130.759,221.059 128.583,217.589 128.793 L 215.691 128.908 215.266 127.731 C 215.032 127.084,214.830 125.685,214.815 124.622 C 214.773 121.445,213.146 120.453,211.020 122.308 C 208.432 124.566,204.953 125.501,202.056 124.718 L 200.583 124.320 201.544 123.821 C 203.117 123.005,203.497 121.751,202.505 120.655 C 202.029 120.128,202.064 120.061,202.926 119.845 C 203.443 119.716,204.719 119.091,205.763 118.457 C 211.532 114.954,215.905 114.254,220.125 116.160 M211.903 128.596 L 212.128 129.629 207.829 130.048 C 205.464 130.278,203.265 130.541,202.941 130.634 C 202.463 130.770,202.353 130.587,202.353 129.651 L 202.353 128.499 205.017 128.317 C 206.810 128.194,208.267 127.867,209.471 127.317 C 211.440 126.418,211.426 126.410,211.903 128.596 M219.010 132.221 C 219.272 133.266,218.370 135.369,217.094 136.687 C 215.813 138.011,215.907 138.983,217.320 139.014 C 217.872 139.026,219.021 139.444,219.872 139.942 C 220.722 140.441,222.120 141.088,222.978 141.381 C 224.533 141.910,224.538 141.917,224.542 143.477 C 224.544 144.338,224.634 145.578,224.742 146.233 C 224.933 147.384,224.873 147.468,222.974 148.720 C 221.893 149.433,220.306 150.599,219.448 151.311 L 217.888 152.606 217.349 150.216 L 216.809 147.826 217.666 146.807 C 219.986 144.050,217.555 142.856,214.891 145.444 C 211.328 148.905,208.641 149.337,208.191 146.520 C 208.024 145.477,207.732 144.987,207.044 144.592 L 206.122 144.062 207.453 143.466 C 208.599 142.953,208.770 142.739,208.678 141.939 C 208.548 140.808,207.631 140.582,206.201 141.328 L 205.210 141.845 205.103 140.630 C 205.000 139.450,204.964 139.421,203.849 139.601 C 202.542 139.813,202.199 139.481,202.498 138.293 C 202.680 137.565,202.793 137.511,203.425 137.849 C 206.355 139.417,210.210 137.520,210.790 134.224 C 211.253 131.595,212.928 130.834,213.299 133.084 C 213.630 135.084,213.703 135.176,214.872 135.063 C 215.839 134.970,216.005 134.802,216.303 133.613 C 216.888 131.273,218.556 130.415,219.010 132.221 M208.625 133.025 C 208.538 133.349,208.375 134.023,208.264 134.523 C 207.864 136.323,204.528 136.284,203.622 134.468 C 202.992 133.206,203.244 132.752,204.538 132.817 C 205.102 132.846,205.116 132.876,204.622 133.005 C 203.884 133.198,203.873 133.719,204.590 134.511 C 205.448 135.459,206.620 135.291,207.218 134.134 C 207.860 132.893,207.858 132.856,207.143 132.669 C 206.819 132.584,207.056 132.497,207.670 132.476 C 208.578 132.444,208.755 132.546,208.625 133.025 M271.378 139.191 C 257.451 160.036,253.797 192.241,261.526 226.033 C 262.659 230.990,262.610 230.683,262.238 230.453 C 261.460 229.972,249.266 227.910,248.968 228.209 C 248.760 228.417,248.750 229.180,248.941 230.292 L 249.244 232.046 257.450 233.657 C 266.420 235.418,273.180 236.918,273.916 237.311 C 274.544 237.646,267.703 244.535,264.084 247.212 C 257.222 252.288,245.929 258.058,238.468 260.301 C 237.897 260.472,237.164 259.792,234.279 256.414 C 223.457 243.743,212.371 232.512,210.934 232.761 C 210.374 232.858,210.748 232.638,211.765 232.273 C 214.175 231.407,215.290 230.776,217.200 229.200 C 218.063 228.488,218.821 228.060,218.884 228.250 C 218.948 228.440,220.888 228.742,223.197 228.922 C 225.506 229.102,229.392 229.475,231.833 229.751 C 238.475 230.501,238.050 230.591,237.781 228.487 C 237.657 227.517,237.636 226.798,237.734 226.891 C 237.832 226.983,238.155 228.955,238.452 231.273 C 239.404 238.710,240.250 241.029,243.200 244.289 C 246.845 248.316,250.900 248.799,250.305 245.134 L 250.114 243.956 250.855 244.570 C 251.263 244.908,252.807 246.439,254.286 247.972 C 257.712 251.523,259.345 251.606,259.973 248.260 C 260.641 244.699,258.887 241.555,254.225 237.957 C 248.579 233.599,248.584 233.614,248.058 219.351 L 247.725 210.299 248.896 209.334 C 251.025 207.579,251.725 200.868,250.124 197.561 C 248.417 194.035,252.181 174.683,256.874 162.857 C 260.471 153.791,271.762 135.462,273.749 135.462 C 273.815 135.462,272.748 137.140,271.378 139.191 M229.277 150.258 L 229.961 152.058 227.626 154.271 C 226.342 155.489,224.372 157.129,223.248 157.917 L 221.205 159.350 220.646 158.247 C 220.339 157.640,219.841 156.863,219.541 156.521 C 218.834 155.716,222.195 152.387,225.464 150.653 C 226.955 149.863,227.621 149.298,227.772 148.696 C 228.045 147.607,228.415 147.991,229.277 150.258 M234.223 158.448 C 240.674 164.030,241.308 165.556,242.008 177.168 C 242.183 180.073,242.644 183.940,243.033 185.762 C 244.484 192.574,245.058 195.775,244.902 196.182 C 244.455 197.348,239.869 197.936,236.499 197.259 C 234.205 196.798,234.229 196.841,233.446 191.736 C 232.236 183.850,230.107 176.807,228.934 176.807 C 227.235 176.807,227.177 178.598,228.701 184.034 C 229.322 186.252,229.935 188.748,230.063 189.580 C 230.190 190.412,230.522 192.489,230.801 194.196 C 231.258 196.997,231.255 197.372,230.779 198.052 C 230.005 199.158,230.131 201.355,231.089 203.412 C 232.225 205.852,232.180 206.139,230.252 208.740 C 225.285 215.440,223.915 215.577,218.156 209.944 C 213.488 205.379,212.978 205.016,209.191 203.569 C 203.776 201.500,203.661 199.748,208.175 188.067 C 209.012 185.900,209.692 183.040,210.573 177.983 C 211.890 170.415,213.157 166.067,215.451 161.240 C 217.054 157.866,217.273 157.840,218.530 160.873 C 219.486 163.178,220.238 163.442,222.339 162.211 C 224.293 161.066,228.844 157.627,229.891 156.504 C 230.922 155.398,230.458 155.190,234.223 158.448 M212.638 160.032 C 210.173 165.274,209.121 168.787,207.874 175.949 C 206.411 184.352,206.400 184.396,204.158 189.987 C 202.549 194.003,202.286 194.987,202.115 197.628 L 201.918 200.660 200.628 199.935 C 198.838 198.929,198.174 197.122,198.400 193.869 C 198.572 191.388,198.824 190.704,203.145 181.008 C 203.804 179.529,204.803 176.277,205.366 173.782 C 207.170 165.775,208.695 162.254,211.848 158.814 C 214.391 156.038,214.463 156.150,212.638 160.032 M151.612 160.248 C 152.475 162.051,152.936 168.251,152.369 170.412 C 152.068 171.557,151.579 168.978,150.366 159.863 C 150.098 157.849,150.528 157.982,151.612 160.248 M156.243 160.900 C 157.108 161.395,157.881 161.852,157.961 161.915 C 158.139 162.054,155.585 164.706,155.273 164.706 C 155.151 164.706,154.968 163.912,154.865 162.941 C 154.762 161.971,154.573 160.912,154.446 160.588 C 154.134 159.797,154.396 159.843,156.243 160.900 M163.419 163.613 C 160.085 167.425,154.540 172.658,154.780 171.765 C 155.900 167.600,159.179 163.806,162.922 162.344 C 165.259 161.430,165.280 161.485,163.419 163.613 M177.064 168.396 L 184.884 173.847 183.231 175.747 C 182.322 176.792,179.978 179.293,178.022 181.305 L 174.465 184.963 173.010 184.799 C 171.889 184.672,157.104 176.719,156.090 175.697 C 155.901 175.507,168.622 162.744,168.908 162.836 C 169.092 162.896,172.763 165.398,177.064 168.396 M167.456 185.798 C 170.689 187.612,171.048 187.734,173.266 187.775 L 175.630 187.820 187.395 195.300 C 193.866 199.414,199.186 202.799,199.219 202.822 C 199.251 202.845,198.389 203.618,197.302 204.541 C 196.215 205.464,194.451 207.224,193.382 208.453 L 191.439 210.687 186.889 211.429 L 182.339 212.171 175.396 207.699 C 169.205 203.712,168.489 203.158,168.792 202.590 C 170.295 199.783,167.194 199.346,165.481 202.124 C 162.185 207.469,142.572 228.174,141.213 227.743 C 139.957 227.344,132.437 222.180,132.437 221.716 C 132.437 221.412,139.951 211.138,148.933 199.160 C 161.800 182.001,161.313 182.352,167.456 185.798 M193.950 191.565 L 195.798 192.321 195.684 194.312 C 195.544 196.761,196.745 197.201,186.731 191.029 C 175.946 184.381,175.603 183.525,185.470 187.881 C 189.117 189.491,192.933 191.149,193.950 191.565 M247.713 199.916 C 248.397 202.378,247.934 206.170,246.853 206.960 C 246.427 207.271,245.245 207.331,242.381 207.187 C 240.090 207.071,237.865 207.136,236.975 207.344 C 235.117 207.778,234.954 207.625,234.651 205.161 C 234.518 204.079,234.087 202.572,233.693 201.814 C 232.704 199.908,233.091 199.633,235.904 200.241 C 239.052 200.922,242.803 200.644,245.101 199.557 C 247.413 198.465,247.306 198.450,247.713 199.916 M206.240 205.710 L 209.286 206.826 209.141 209.578 C 208.955 213.133,209.653 215.655,211.340 217.523 L 212.569 218.883 210.822 220.566 C 208.603 222.706,208.746 224.778,211.062 224.043 C 212.723 223.516,217.491 217.713,218.031 215.561 C 218.276 214.584,218.403 214.599,219.825 215.778 L 220.996 216.748 220.232 218.878 C 216.909 228.152,214.910 229.131,188.488 234.430 C 173.699 237.396,175.036 237.258,174.430 235.882 C 173.909 234.697,172.751 234.279,171.914 234.973 C 171.171 235.590,171.224 235.789,174.414 244.302 C 177.688 253.037,178.609 256.118,181.162 266.861 L 182.872 274.059 182.115 274.864 C 180.863 276.197,173.413 279.188,172.914 278.558 C 172.301 277.783,165.262 260.923,159.783 247.110 C 152.121 227.790,152.255 225.680,161.385 221.929 C 172.716 217.274,184.088 214.413,195.798 213.272 C 199.470 212.915,200.691 210.084,197.174 210.084 L 196.163 210.084 197.661 208.532 C 199.712 206.409,202.377 204.310,202.824 204.465 C 203.027 204.536,204.564 205.096,206.240 205.710 M177.059 212.395 C 178.271 213.039,177.973 213.286,175.210 213.928 C 169.862 215.171,157.802 219.777,155.009 221.644 C 153.023 222.971,151.720 225.469,151.307 228.739 C 151.033 230.903,151.006 230.962,150.967 229.473 C 150.931 228.100,150.835 227.880,150.336 228.026 C 150.013 228.120,148.848 228.358,147.749 228.554 C 145.356 228.979,143.892 230.166,143.815 231.744 L 143.765 232.773 143.623 231.832 C 143.497 230.997,144.140 230.217,149.329 224.902 C 155.781 218.294,161.292 212.330,164.611 208.365 L 166.779 205.776 171.541 208.885 C 174.160 210.594,176.643 212.174,177.059 212.395 M215.724 213.398 C 215.539 214.071,215.166 215.053,214.895 215.580 L 214.401 216.539 213.581 215.768 C 212.269 214.535,211.343 210.567,211.979 208.908 C 212.474 207.618,216.113 211.982,215.724 213.398 M234.466 210.420 C 234.725 210.420,235.008 210.900,235.111 211.513 C 235.212 212.113,235.823 215.587,236.471 219.231 C 237.767 226.529,237.785 226.679,237.332 226.400 C 236.418 225.835,221.493 224.472,220.971 224.905 C 220.747 225.091,221.065 224.290,221.677 223.125 C 222.289 221.961,223.059 220.139,223.389 219.076 C 223.783 217.804,224.168 217.142,224.515 217.140 C 226.390 217.128,230.501 213.932,232.425 210.992 C 232.795 210.426,233.233 210.124,233.523 210.235 C 233.788 210.337,234.212 210.420,234.466 210.420 M244.561 210.499 C 244.697 210.635,244.935 214.719,245.090 219.575 C 245.572 234.675,245.840 235.458,252.199 240.300 C 255.165 242.559,256.051 243.559,256.775 245.463 C 257.009 246.079,256.465 245.688,254.853 244.083 C 248.590 237.846,243.185 236.241,245.183 241.213 L 245.709 242.521 244.853 241.513 C 242.939 239.258,242.182 236.855,241.359 230.420 C 241.146 228.756,240.299 223.624,239.477 219.014 C 238.656 214.404,237.983 210.495,237.983 210.326 C 237.983 209.968,244.194 210.131,244.561 210.499 M135.384 227.830 C 137.016 228.901,138.816 229.970,139.385 230.206 C 140.447 230.646,140.840 231.855,140.840 234.677 C 140.840 235.926,140.403 236.085,135.123 236.764 C 121.865 238.469,114.808 238.928,113.941 238.143 C 112.193 236.562,112.431 236.381,126.050 228.944 C 132.661 225.334,131.748 225.443,135.384 227.830 M209.561 233.374 C 209.467 233.617,211.640 236.078,214.531 239.004 C 220.135 244.676,226.704 251.866,231.559 257.642 L 234.663 261.334 232.373 261.921 C 225.937 263.572,217.267 264.797,209.832 265.104 L 204.706 265.315 204.706 249.969 L 204.706 234.622 203.950 234.590 C 203.534 234.572,204.479 234.208,206.050 233.782 C 209.480 232.850,209.775 232.816,209.561 233.374 M362.101 237.671 C 359.274 239.008,358.970 239.382,359.795 240.511 C 360.248 241.130,360.339 241.113,362.598 239.987 L 364.933 238.824 365.683 240.000 C 367.501 242.857,367.885 243.160,368.865 242.518 C 370.014 241.765,370.063 241.919,367.713 238.908 C 365.366 235.901,365.694 235.973,362.101 237.671 M131.770 240.636 C 129.973 241.136,139.478 249.394,147.223 254.063 C 151.894 256.878,160.813 261.148,161.205 260.756 C 161.265 260.696,160.980 259.936,160.573 259.067 C 159.857 257.542,159.672 257.408,155.126 255.157 C 147.693 251.476,140.535 246.527,136.262 242.114 C 134.483 240.277,133.830 240.062,131.770 240.636 M361.176 242.120 C 359.513 242.873,358.108 243.517,358.055 243.550 C 357.782 243.721,358.827 245.378,359.208 245.378 C 359.453 245.378,360.590 244.924,361.735 244.370 C 364.111 243.219,364.034 243.240,364.034 243.729 C 364.034 244.146,366.441 247.359,366.769 247.381 C 366.888 247.389,367.334 247.112,367.762 246.765 L 368.540 246.135 366.563 243.555 C 365.476 242.136,364.500 240.924,364.394 240.863 C 364.288 240.802,362.840 241.367,361.176 242.120 M355.462 250.404 C 348.946 250.691,348.602 251.068,352.072 254.118 C 353.229 255.134,356.245 257.833,358.773 260.114 L 363.371 264.261 363.910 262.972 L 364.448 261.683 362.680 260.099 L 360.911 258.515 361.921 255.728 L 362.931 252.941 364.575 252.853 C 367.378 252.704,368.403 251.994,368.403 250.202 C 368.403 250.040,361.156 250.153,355.462 250.404 M360.336 253.068 C 360.336 253.230,360.132 253.873,359.882 254.497 C 359.632 255.120,359.331 255.901,359.215 256.232 C 359.005 256.827,358.728 256.638,354.314 252.892 C 354.237 252.827,355.560 252.773,357.255 252.773 C 358.950 252.773,360.336 252.906,360.336 253.068 M346.609 260.688 C 345.996 262.033,346.047 262.092,349.249 263.700 L 352.280 265.222 351.763 266.222 C 351.478 266.772,350.726 268.362,350.091 269.756 L 348.936 272.290 345.862 270.746 C 344.171 269.897,342.746 269.249,342.697 269.307 C 342.417 269.632,341.480 271.675,341.572 271.760 C 341.838 272.008,356.062 278.655,356.326 278.655 C 356.587 278.655,357.647 276.933,357.647 276.509 C 357.647 276.419,356.210 275.665,354.454 274.833 C 352.697 274.001,351.261 273.237,351.261 273.135 C 351.261 273.033,351.979 271.473,352.856 269.668 C 353.734 267.863,354.467 266.347,354.485 266.299 C 354.502 266.251,355.995 266.912,357.802 267.768 C 361.287 269.418,361.418 269.414,361.892 267.631 C 362.156 266.642,362.883 267.087,354.674 263.210 C 346.564 259.380,347.125 259.555,346.609 260.688 M49.926 266.063 C 46.757 270.421,45.739 271.597,45.136 271.597 C 44.181 271.597,43.025 270.481,43.025 269.559 C 43.025 268.979,42.846 268.882,41.933 268.970 C 39.819 269.174,40.572 272.512,42.957 273.509 C 44.259 274.053,60.168 273.849,60.168 273.288 C 60.168 271.931,59.390 270.981,58.379 271.104 C 57.792 271.175,55.463 271.314,53.205 271.412 L 49.099 271.590 52.281 267.478 C 55.693 263.068,55.725 262.996,54.949 261.496 C 54.223 260.092,54.355 259.972,49.926 266.063 M318.151 271.933 L 314.128 275.966 296.754 275.966 L 279.380 275.966 278.347 279.244 C 277.779 281.046,274.083 292.429,270.134 304.538 L 262.955 326.555 272.234 326.759 C 289.769 327.145,295.909 330.776,297.132 341.483 C 299.338 360.790,283.195 376.498,265.565 372.199 L 263.063 371.589 259.347 365.374 L 255.630 359.160 253.987 359.160 L 252.344 359.160 248.839 365.829 C 244.874 373.374,244.927 372.402,248.358 374.674 C 256.500 380.066,272.340 381.532,283.755 377.951 C 300.427 372.720,310.079 359.027,310.033 340.672 C 309.991 323.607,300.211 315.630,279.333 315.630 C 275.110 315.630,273.913 315.535,274.032 315.210 C 274.117 314.979,276.188 308.777,278.634 301.429 L 283.081 288.067 301.032 288.067 L 318.983 288.067 320.122 285.798 C 322.080 281.896,326.050 270.229,326.050 268.376 C 326.050 268.019,325.562 267.899,324.112 267.899 L 322.174 267.899 318.151 271.933 M219.719 274.654 C 213.604 275.548,205.348 278.894,199.745 282.749 L 198.225 283.795 198.418 289.544 C 198.590 294.676,199.378 302.708,199.864 304.286 C 200.009 304.757,200.425 304.872,201.955 304.865 L 203.866 304.856 208.446 294.529 C 213.555 283.010,213.039 283.698,217.226 282.806 C 230.386 280.002,238.516 285.512,237.875 296.800 C 236.861 314.649,218.083 339.140,182.857 368.557 L 177.311 373.188 176.756 375.250 C 176.450 376.383,176.185 377.500,176.167 377.731 C 176.141 378.064,182.425 378.151,206.555 378.151 C 223.286 378.151,236.975 378.099,236.975 378.034 C 236.975 377.970,237.351 376.215,237.811 374.135 C 239.138 368.138,240.279 361.248,240.833 355.892 C 241.551 348.942,241.701 349.580,239.356 349.580 L 237.368 349.580 232.014 357.899 L 226.660 366.218 211.565 366.424 C 203.263 366.537,195.790 366.745,194.958 366.887 C 193.120 367.199,192.628 367.683,200.672 361.273 C 242.905 327.620,259.275 302.141,249.972 284.542 C 245.828 276.703,233.430 272.651,219.719 274.654 M337.365 278.693 C 335.928 281.117,334.799 283.141,334.855 283.191 C 335.273 283.560,348.749 291.429,348.964 291.429 C 349.794 291.429,352.485 286.751,352.805 284.753 C 353.943 277.635,345.386 275.963,342.344 282.709 L 341.753 284.019 340.121 283.102 C 338.132 281.985,338.113 282.387,340.331 278.635 L 342.174 275.515 341.163 274.901 C 340.607 274.562,340.113 274.286,340.065 274.286 C 340.017 274.286,338.803 276.269,337.365 278.693 M54.118 278.521 C 50.513 280.641,47.341 282.509,47.070 282.671 C 46.638 282.929,46.638 283.079,47.065 283.876 C 47.812 285.273,48.164 285.234,51.319 283.403 L 54.254 281.700 56.172 284.966 C 57.226 286.762,58.033 288.322,57.965 288.433 C 57.897 288.543,56.587 289.358,55.055 290.242 C 51.697 292.181,51.996 291.923,52.247 292.664 C 52.955 294.755,52.837 294.788,60.382 290.388 C 68.601 285.595,67.672 286.242,67.417 285.488 C 66.769 283.573,66.505 283.566,63.437 285.372 C 61.860 286.300,60.499 287.059,60.411 287.059 C 60.291 287.059,57.507 282.372,56.586 280.620 C 56.523 280.499,57.718 279.678,59.244 278.796 C 60.769 277.913,62.082 277.141,62.161 277.079 C 62.381 276.907,61.224 274.619,60.930 274.643 C 60.788 274.655,57.723 276.400,54.118 278.521 M185.588 278.688 C 188.190 280.749,188.521 280.050,180.198 290.084 C 173.871 297.712,169.837 301.911,168.963 301.780 C 167.129 301.504,167.437 300.145,172.121 287.861 L 174.570 281.436 177.149 280.691 C 178.568 280.281,180.621 279.438,181.713 278.818 C 184.164 277.426,184.001 277.431,185.588 278.688 M348.877 281.497 C 350.766 282.473,350.713 286.093,348.786 287.692 C 348.461 287.962,344.856 286.145,343.983 285.271 C 343.656 284.945,345.815 281.816,346.642 281.417 C 347.656 280.928,347.786 280.933,348.877 281.497 M333.276 285.506 L 332.664 286.641 334.964 290.295 C 336.229 292.305,337.577 294.314,337.959 294.760 C 338.342 295.206,338.459 295.457,338.218 295.318 C 337.701 295.019,329.694 293.798,328.235 293.795 C 327.333 293.793,325.414 295.610,325.854 296.050 C 325.920 296.116,328.975 296.528,332.644 296.967 C 340.613 297.919,341.987 298.716,339.665 301.038 C 338.868 301.835,338.853 301.918,339.368 302.703 C 340.098 303.817,340.581 303.745,341.814 302.341 C 343.706 300.187,343.440 299.344,338.097 290.544 C 333.960 283.729,334.134 283.911,333.276 285.506 M64.706 291.645 C 62.303 293.411,59.312 295.602,58.060 296.513 C 54.181 299.336,55.174 299.748,66.230 299.903 L 71.788 299.980 68.079 302.645 C 61.471 307.393,61.901 306.855,63.264 308.677 C 63.652 309.196,73.024 302.999,76.921 299.645 C 77.265 299.350,76.508 298.192,75.870 298.039 C 75.461 297.941,71.992 297.815,68.162 297.759 C 64.332 297.704,61.307 297.568,61.440 297.458 C 61.572 297.348,63.647 295.850,66.050 294.128 C 68.454 292.406,70.489 290.937,70.573 290.863 C 70.766 290.696,69.545 288.398,69.275 288.419 C 69.165 288.427,67.109 289.879,64.706 291.645 M321.206 301.212 L 317.973 304.942 321.591 308.710 C 326.072 313.375,327.397 315.569,326.531 316.890 L 325.945 317.784 327.763 319.398 C 329.647 321.071,330.263 321.243,330.879 320.264 C 331.169 319.804,331.058 319.496,330.327 318.733 C 329.823 318.208,329.412 317.680,329.412 317.560 C 329.412 317.394,335.183 310.556,336.822 308.781 C 336.974 308.616,337.636 308.822,338.324 309.247 L 339.554 310.007 340.267 309.294 L 340.980 308.582 339.145 306.911 C 337.039 304.993,336.944 304.964,335.923 305.923 L 335.164 306.636 330.187 302.292 C 327.450 299.903,325.036 297.844,324.824 297.715 C 324.590 297.574,323.166 298.950,321.206 301.212 M329.412 305.361 C 331.538 307.203,333.233 308.850,333.178 309.022 C 332.924 309.822,328.914 313.965,328.788 313.558 C 328.488 312.589,325.668 308.973,323.727 307.069 C 321.293 304.683,321.326 304.906,323.095 302.852 C 324.272 301.486,324.597 301.278,325.028 301.612 C 325.313 301.832,327.286 303.520,329.412 305.361 M72.824 307.094 C 66.028 313.102,66.338 312.476,68.731 315.378 C 73.240 320.844,79.630 320.723,79.275 315.179 L 79.160 313.378 80.533 313.533 C 85.810 314.130,86.279 308.988,81.408 303.932 C 78.878 301.305,79.725 300.993,72.824 307.094 M80.561 306.471 C 82.353 308.707,82.514 309.204,81.766 310.210 C 80.640 311.724,79.008 311.599,77.117 309.856 L 75.551 308.413 77.355 306.815 C 79.523 304.896,79.317 304.918,80.561 306.471 M76.483 313.089 C 78.503 316.839,73.944 318.055,71.124 314.519 L 70.104 313.239 71.943 311.606 L 73.782 309.973 74.838 310.983 C 75.418 311.539,76.159 312.487,76.483 313.089 M82.560 318.196 L 76.911 324.122 77.699 324.853 C 78.133 325.254,79.815 326.853,81.437 328.406 L 84.387 331.228 85.303 330.305 L 86.218 329.381 83.420 326.792 L 80.623 324.202 82.306 322.555 L 83.990 320.909 86.487 323.143 C 89.366 325.720,89.163 325.640,89.912 324.497 L 90.490 323.615 88.099 321.208 L 85.708 318.801 87.185 317.352 C 88.937 315.633,88.989 315.647,91.922 318.631 C 94.167 320.915,94.532 321.042,95.336 319.815 L 95.898 318.958 92.403 315.630 C 90.480 313.800,88.750 312.295,88.558 312.286 C 88.366 312.276,85.667 314.936,82.560 318.196 M316.772 315.714 C 316.894 316.870,317.078 318.436,317.183 319.194 L 317.372 320.573 320.619 320.922 C 324.314 321.320,324.370 321.306,324.370 320.024 C 324.370 319.112,320.449 318.131,319.400 318.779 C 319.253 318.869,319.109 318.036,319.078 316.927 C 318.998 314.048,318.802 313.613,317.581 313.613 L 316.552 313.613 316.772 315.714 M313.288 317.563 C 313.311 319.607,313.971 323.503,314.332 323.726 C 314.543 323.857,315.867 324.064,317.274 324.188 C 318.681 324.311,320.097 324.488,320.420 324.581 C 320.899 324.720,321.008 324.537,321.008 323.594 C 321.008 322.292,320.372 322.017,317.353 322.017 L 315.798 322.017 315.737 320.425 C 315.615 317.264,315.373 316.639,314.270 316.639 C 313.409 316.639,313.279 316.761,313.288 317.563 M92.547 326.740 C 86.470 334.190,86.860 333.508,88.137 334.452 L 89.189 335.230 89.889 334.411 C 90.273 333.961,91.139 332.927,91.812 332.113 L 93.035 330.634 94.165 331.588 C 98.742 335.451,104.532 333.846,104.537 328.713 C 104.539 326.227,102.624 323.872,98.429 321.201 L 97.531 320.629 92.547 326.740 M101.189 326.740 C 103.640 330.182,99.859 332.472,96.050 329.851 C 94.459 328.756,94.451 328.810,96.544 326.254 L 98.297 324.111 99.413 324.962 C 100.026 325.430,100.825 326.230,101.189 326.740 M108.233 331.726 C 99.308 334.613,99.307 347.618,108.232 348.815 C 109.330 348.963,110.606 347.592,109.848 347.080 C 109.793 347.042,108.882 346.597,107.823 346.090 C 103.253 343.902,103.031 338.600,107.370 335.291 C 109.670 333.536,112.240 333.931,114.941 336.455 C 115.997 337.442,116.099 337.469,116.852 336.976 C 119.601 335.175,111.960 330.521,108.233 331.726 M117.889 340.066 C 110.002 354.245,109.882 353.666,119.834 349.390 C 123.488 347.820,126.514 346.577,126.557 346.629 C 126.600 346.680,125.451 348.840,124.003 351.429 C 120.953 356.882,121.003 356.687,122.479 357.391 L 123.613 357.932 127.335 351.151 C 131.828 342.963,131.670 343.346,130.754 342.856 C 130.069 342.489,123.057 345.196,117.606 347.931 L 116.388 348.542 119.198 343.430 C 122.441 337.531,122.276 338.053,121.092 337.460 C 120.584 337.205,120.068 336.945,119.945 336.883 C 119.823 336.821,118.897 338.253,117.889 340.066 M132.487 345.067 C 131.962 346.220,132.055 346.317,134.732 347.419 L 137.041 348.369 134.428 354.345 C 131.105 361.945,131.235 361.484,132.280 361.961 C 133.796 362.651,133.945 362.455,136.626 356.218 C 139.832 348.764,139.269 349.355,141.992 350.577 C 144.775 351.826,144.639 351.828,145.131 350.526 C 145.621 349.227,146.440 349.771,139.450 346.757 C 132.689 343.843,133.009 343.921,132.487 345.067 M144.367 357.654 C 142.941 361.935,141.904 365.551,142.063 365.689 C 142.222 365.828,144.244 366.595,146.555 367.393 C 148.866 368.191,150.927 368.905,151.136 368.980 C 151.583 369.141,152.398 367.042,152.021 366.702 C 151.880 366.574,150.290 365.985,148.487 365.392 C 146.685 364.799,145.210 364.205,145.210 364.071 C 145.210 363.937,145.522 362.904,145.904 361.774 L 146.597 359.721 149.496 360.701 C 153.074 361.910,153.132 361.910,153.560 360.680 C 153.971 359.502,154.183 359.658,150.588 358.487 C 149.017 357.975,147.669 357.501,147.593 357.435 C 147.320 357.197,148.687 353.277,149.045 353.273 C 149.247 353.271,150.815 353.751,152.530 354.340 C 155.787 355.458,156.098 355.426,156.463 353.945 C 156.666 353.124,156.547 353.060,152.201 351.629 C 149.743 350.820,147.558 350.094,147.346 350.015 C 147.105 349.925,145.993 352.778,144.367 357.654 M157.785 354.453 C 157.445 355.808,157.805 356.173,159.924 356.623 C 162.969 357.269,162.885 356.820,161.221 363.556 C 159.227 371.630,159.263 371.150,160.625 371.507 C 162.102 371.894,161.870 372.392,163.742 364.829 C 165.685 356.983,165.031 357.918,168.067 358.639 C 170.745 359.274,170.919 359.220,171.143 357.686 C 171.248 356.971,164.330 354.823,158.074 353.628 C 158.031 353.620,157.901 353.991,157.785 354.453 "
              stroke="none" fill="#000000" fill-rule="evenodd"></path>
    </g>
</svg>